Nobel-Light.ufo
<glyph name="exclam" format="1">
  <advance width="189"/>
  <unicode hex="0021"/>
  <outline>
    <contour>
      <point x="117" y="300" type="line"/>
      <point x="107" y="129" type="line"/>
      <point x="82" y="129" type="line"/>
      <point x="72" y="300" type="line"/>
      <point x="72" y="730" type="line"/>
      <point x="117" y="730" type="line"/>
    </contour>
    <contour>
      <point x="117" y="0" type="line"/>
      <point x="72" y="0" type="line"/>
      <point x="72" y="84" type="line"/>
      <point x="117" y="84" type="line"/>
    </contour>
  </outline>
</glyph>
<glyph name="quotedbl" format="1">
  <advance width="280"/>
  <unicode hex="0022"/>
  <outline>
    <contour>
      <point x="220" y="643" type="line"/>
      <point x="210" y="553" type="line"/>
      <point x="185" y="553" type="line"/>
      <point x="175" y="643" type="line"/>
      <point x="175" y="730" type="line"/>
      <point x="220" y="730" type="line"/>
    </contour>
    <contour>
      <point x="105" y="643" type="line"/>
      <point x="95" y="553" type="line"/>
      <point x="70" y="553" type="line"/>
      <point x="60" y="643" type="line"/>
      <point x="60" y="730" type="line"/>
      <point x="105" y="730" type="line"/>
    </contour>
  </outline>
</glyph>
<glyph name="numbersign" format="1">
  <advance width="586"/>
  <unicode hex="0023"/>
  <outline>
    <contour>
      <point x="556" y="227" type="line"/>
      <point x="413" y="227" type="line"/>
      <point x="393" y="0" type="line"/>
      <point x="348" y="0" type="line"/>
      <point x="368" y="227" type="line"/>
      <point x="194" y="227" type="line"/>
      <point x="174" y="0" type="line"/>
      <point x="129" y="0" type="line"/>
      <point x="149" y="227" type="line"/>
      <point x="30" y="227" type="line"/>
      <point x="30" y="263" type="line"/>
      <point x="152" y="263" type="line"/>
      <point x="170" y="470" type="line"/>
      <point x="30" y="470" type="line"/>
      <point x="30" y="506" type="line"/>
      <point x="173" y="506" type="line"/>
      <point x="193" y="730" type="line"/>
      <point x="238" y="730" type="line"/>
      <point x="218" y="506" type="line"/>
      <point x="392" y="506" type="line"/>
      <point x="412" y="730" type="line"/>
      <point x="457" y="730" type="line"/>
      <point x="437" y="506" type="line"/>
      <point x="556" y="506" type="line"/>
      <point x="556" y="470" type="line"/>
      <point x="434" y="470" type="line"/>
      <point x="416" y="263" type="line"/>
      <point x="556" y="263" type="line"/>
    </contour>
    <contour>
      <point x="389" y="470" type="line"/>
      <point x="215" y="470" type="line"/>
      <point x="197" y="263" type="line"/>
      <point x="371" y="263" type="line"/>
    </contour>
  </outline>
</glyph>
<glyph name="dollar" format="1">
  <advance width="485"/>
  <unicode hex="0024"/>
  <outline>
    <contour>
      <point x="450" y="189" type="curve" smooth="yes"/>
      <point x="450" y="81"/>
      <point x="371" y="8"/>
      <point x="255" y="1" type="curve"/>
      <point x="255" y="-69" type="line"/>
      <point x="214" y="-69" type="line"/>
      <point x="214" y="1" type="line"/>
      <point x="140" y="7"/>
      <point x="63" y="47"/>
      <point x="25" y="91" type="curve"/>
      <point x="53" y="120" type="line"/>
      <point x="92" y="79"/>
      <point x="154" y="48"/>
      <point x="214" y="44" type="curve"/>
      <point x="214" y="376" type="line"/>
      <point x="102" y="427"/>
      <point x="47" y="471"/>
      <point x="47" y="564" type="curve" smooth="yes"/>
      <point x="47" y="658"/>
      <point x="115" y="721"/>
      <point x="214" y="729" type="curve"/>
      <point x="214" y="785" type="line"/>
      <point x="255" y="785" type="line"/>
      <point x="255" y="729" type="line"/>
      <point x="316" y="726"/>
      <point x="365" y="708"/>
      <point x="417" y="666" type="curve"/>
      <point x="389" y="633" type="line"/>
      <point x="351" y="669"/>
      <point x="308" y="685"/>
      <point x="255" y="688" type="curve"/>
      <point x="255" y="405" type="line"/>
      <point x="373" y="351"/>
      <point x="450" y="301"/>
    </contour>
    <contour>
      <point x="214" y="424" type="curve"/>
      <point x="214" y="688" type="line"/>
      <point x="135" y="681"/>
      <point x="93" y="634"/>
      <point x="93" y="564" type="curve" smooth="yes"/>
      <point x="93" y="495"/>
      <point x="124" y="466"/>
    </contour>
    <contour>
      <point x="405" y="184" type="curve" smooth="yes"/>
      <point x="405" y="275"/>
      <point x="359" y="310"/>
      <point x="255" y="358" type="curve"/>
      <point x="255" y="44" type="line"/>
      <point x="349" y="52"/>
      <point x="405" y="104"/>
    </contour>
  </outline>
</glyph>
<glyph name="percent" format="1">
  <advance width="730"/>
  <unicode hex="0025"/>
  <outline>
    <contour>
      <point x="334" y="556" type="curve" smooth="yes"/>
      <point x="334" y="448"/>
      <point x="279" y="365"/>
      <point x="190" y="365" type="curve" smooth="yes"/>
      <point x="119" y="365"/>
      <point x="50" y="427"/>
      <point x="50" y="553" type="curve" smooth="yes"/>
      <point x="50" y="660"/>
      <point x="105" y="742"/>
      <point x="193" y="742" type="curve" smooth="yes"/>
      <point x="284" y="742"/>
      <point x="334" y="657"/>
    </contour>
    <contour>
      <point x="635" y="730" type="line"/>
      <point x="136" y="0" type="line"/>
      <point x="85" y="0" type="line"/>
      <point x="584" y="730" type="line"/>
    </contour>
    <contour>
      <point x="680" y="179" type="curve" smooth="yes"/>
      <point x="680" y="71"/>
      <point x="625" y="-12"/>
      <point x="536" y="-12" type="curve" smooth="yes"/>
      <point x="465" y="-12"/>
      <point x="396" y="50"/>
      <point x="396" y="176" type="curve" smooth="yes"/>
      <point x="396" y="283"/>
      <point x="451" y="365"/>
      <point x="539" y="365" type="curve" smooth="yes"/>
      <point x="630" y="365"/>
      <point x="680" y="280"/>
    </contour>
    <contour>
      <point x="289" y="553" type="curve" smooth="yes"/>
      <point x="289" y="634"/>
      <point x="256" y="702"/>
      <point x="193" y="702" type="curve" smooth="yes"/>
      <point x="130" y="702"/>
      <point x="95" y="639"/>
      <point x="95" y="553" type="curve" smooth="yes"/>
      <point x="95" y="469"/>
      <point x="127" y="405"/>
      <point x="190" y="405" type="curve" smooth="yes"/>
      <point x="257" y="405"/>
      <point x="289" y="470"/>
    </contour>
    <contour>
      <point x="635" y="176" type="curve" smooth="yes"/>
      <point x="635" y="257"/>
      <point x="602" y="325"/>
      <point x="539" y="325" type="curve" smooth="yes"/>
      <point x="476" y="325"/>
      <point x="441" y="262"/>
      <point x="441" y="176" type="curve" smooth="yes"/>
      <point x="441" y="92"/>
      <point x="473" y="28"/>
      <point x="536" y="28" type="curve" smooth="yes"/>
      <point x="603" y="28"/>
      <point x="635" y="93"/>
    </contour>
  </outline>
</glyph>
<glyph name="ampersand" format="1">
  <advance width="630"/>
  <unicode hex="0026"/>
  <outline>
    <contour>
      <point x="606" y="0" type="line"/>
      <point x="548" y="0" type="line"/>
      <point x="467" y="91" type="line"/>
      <point x="406" y="34"/>
      <point x="331" y="-12"/>
      <point x="237" y="-12" type="curve" smooth="yes"/>
      <point x="125" y="-12"/>
      <point x="40" y="73"/>
      <point x="40" y="181" type="curve" smooth="yes"/>
      <point x="40" y="279"/>
      <point x="113" y="352"/>
      <point x="188" y="407" type="curve"/>
      <point x="139" y="462" type="line" smooth="yes"/>
      <point x="104" y="502"/>
      <point x="77" y="546"/>
      <point x="77" y="594" type="curve" smooth="yes"/>
      <point x="77" y="677"/>
      <point x="150" y="742"/>
      <point x="236" y="742" type="curve" smooth="yes"/>
      <point x="327" y="742"/>
      <point x="390" y="677"/>
      <point x="390" y="595" type="curve" smooth="yes"/>
      <point x="390" y="516"/>
      <point x="321" y="454"/>
      <point x="249" y="402" type="curve"/>
      <point x="471" y="152" type="line"/>
      <point x="496" y="178"/>
      <point x="518" y="205"/>
      <point x="537" y="230" type="curve"/>
      <point x="567" y="201" type="line"/>
      <point x="546" y="176"/>
      <point x="523" y="148"/>
      <point x="498" y="122" type="curve"/>
    </contour>
    <contour>
      <point x="345" y="591" type="curve" smooth="yes"/>
      <point x="345" y="659"/>
      <point x="302" y="701"/>
      <point x="236" y="701" type="curve" smooth="yes"/>
      <point x="175" y="701"/>
      <point x="123" y="662"/>
      <point x="123" y="597" type="curve" smooth="yes"/>
      <point x="123" y="558"/>
      <point x="136" y="528"/>
      <point x="172" y="488" type="curve" smooth="yes"/>
      <point x="223" y="431" type="line"/>
      <point x="288" y="478"/>
      <point x="345" y="530"/>
    </contour>
    <contour>
      <point x="440" y="122" type="curve"/>
      <point x="214" y="377" type="line"/>
      <point x="144" y="324"/>
      <point x="87" y="264"/>
      <point x="87" y="184" type="curve" smooth="yes"/>
      <point x="87" y="101"/>
      <point x="145" y="30"/>
      <point x="233" y="30" type="curve" smooth="yes"/>
      <point x="316" y="30"/>
      <point x="384" y="70"/>
    </contour>
  </outline>
</glyph>
<glyph name="quotesingle" format="1">
  <advance width="165"/>
  <unicode hex="0027"/>
  <outline>
    <contour>
      <point x="105" y="643" type="line"/>
      <point x="95" y="553" type="line"/>
      <point x="70" y="553" type="line"/>
      <point x="60" y="643" type="line"/>
      <point x="60" y="730" type="line"/>
      <point x="105" y="730" type="line"/>
    </contour>
  </outline>
</glyph>
<glyph name="parenleft" format="1">
  <advance width="293"/>
  <unicode hex="0028"/>
  <outline>
    <contour>
      <point x="278" y="-195" type="line"/>
      <point x="128" y="-75"/>
      <point x="43" y="87"/>
      <point x="43" y="289" type="curve" smooth="yes"/>
      <point x="43" y="491"/>
      <point x="128" y="653"/>
      <point x="278" y="773" type="curve"/>
      <point x="278" y="745" type="line"/>
      <point x="172" y="643"/>
      <point x="90" y="469"/>
      <point x="90" y="289" type="curve" smooth="yes"/>
      <point x="90" y="109"/>
      <point x="172" y="-65"/>
      <point x="278" y="-167" type="curve"/>
    </contour>
  </outline>
</glyph>
<glyph name="parenright" format="1">
  <advance width="293"/>
  <unicode hex="0029"/>
  <outline>
    <contour>
      <point x="250" y="289" type="curve" smooth="yes"/>
      <point x="250" y="87"/>
      <point x="165" y="-75"/>
      <point x="15" y="-195" type="curve"/>
      <point x="15" y="-167" type="line"/>
      <point x="121" y="-65"/>
      <point x="203" y="109"/>
      <point x="203" y="289" type="curve" smooth="yes"/>
      <point x="203" y="469"/>
      <point x="121" y="643"/>
      <point x="15" y="745" type="curve"/>
      <point x="15" y="773" type="line"/>
      <point x="165" y="653"/>
      <point x="250" y="491"/>
    </contour>
  </outline>
</glyph>
<glyph name="asterisk" format="1">
  <advance width="393"/>
  <unicode hex="002A"/>
  <outline>
    <contour>
      <point x="350" y="605" type="line"/>
      <point x="220" y="566" type="line"/>
      <point x="302" y="459" type="line"/>
      <point x="273" y="437" type="line"/>
      <point x="196" y="548" type="line"/>
      <point x="119" y="438" type="line"/>
      <point x="89" y="458" type="line"/>
      <point x="172" y="566" type="line"/>
      <point x="42" y="605" type="line"/>
      <point x="54" y="639" type="line"/>
      <point x="181" y="594" type="line"/>
      <point x="177" y="730" type="line"/>
      <point x="213" y="730" type="line"/>
      <point x="209" y="594" type="line"/>
      <point x="338" y="639" type="line"/>
    </contour>
  </outline>
</glyph>
<glyph name="plus" format="1">
  <advance width="502"/>
  <unicode hex="002B"/>
  <outline>
    <contour>
      <point x="467" y="310" type="line"/>
      <point x="273" y="310" type="line"/>
      <point x="273" y="125" type="line"/>
      <point x="229" y="125" type="line"/>
      <point x="229" y="310" type="line"/>
      <point x="35" y="310" type="line"/>
      <point x="35" y="350" type="line"/>
      <point x="229" y="350" type="line"/>
      <point x="229" y="537" type="line"/>
      <point x="273" y="537" type="line"/>
      <point x="273" y="350" type="line"/>
      <point x="467" y="350" type="line"/>
    </contour>
  </outline>
</glyph>
<glyph name="comma" format="1">
  <advance width="165"/>
  <unicode hex="002C"/>
  <outline>
    <contour>
      <point x="105" y="0" type="line" smooth="yes"/>
      <point x="105" y="-65"/>
      <point x="80" y="-114"/>
      <point x="49" y="-148" type="curve"/>
      <point x="21" y="-148" type="line"/>
      <point x="52" y="-103"/>
      <point x="60" y="-61"/>
      <point x="60" y="3" type="curve" smooth="yes"/>
      <point x="60" y="84" type="line"/>
      <point x="105" y="84" type="line"/>
    </contour>
  </outline>
</glyph>
<glyph name="period" format="1">
  <advance width="165"/>
  <unicode hex="002E"/>
  <outline>
    <contour>
      <point x="105" y="0" type="line"/>
      <point x="60" y="0" type="line"/>
      <point x="60" y="84" type="line"/>
      <point x="105" y="84" type="line"/>
    </contour>
  </outline>
</glyph>
<glyph name="slash" format="1">
  <advance width="372"/>
  <unicode hex="002F"/>
  <outline>
    <contour>
      <point x="332" y="730" type="line"/>
      <point x="85" y="0" type="line"/>
      <point x="40" y="0" type="line"/>
      <point x="287" y="730" type="line"/>
    </contour>
  </outline>
</glyph>
<glyph name="zero" format="1">
  <advance width="602"/>
  <unicode hex="0030"/>
  <outline>
    <contour>
      <point x="563" y="372" type="curve" smooth="yes"/>
      <point x="563" y="161"/>
      <point x="482" y="-12"/>
      <point x="298" y="-12" type="curve" smooth="yes"/>
      <point x="122" y="-12"/>
      <point x="39" y="170"/>
      <point x="39" y="358" type="curve" smooth="yes"/>
      <point x="39" y="569"/>
      <point x="119" y="742"/>
      <point x="303" y="742" type="curve" smooth="yes"/>
      <point x="479" y="742"/>
      <point x="563" y="560"/>
    </contour>
    <contour>
      <point x="516" y="366" type="curve" smooth="yes"/>
      <point x="516" y="528"/>
      <point x="455" y="700"/>
      <point x="302" y="700" type="curve" smooth="yes"/>
      <point x="152" y="700"/>
      <point x="86" y="545"/>
      <point x="86" y="364" type="curve" smooth="yes"/>
      <point x="86" y="202"/>
      <point x="150" y="30"/>
      <point x="300" y="30" type="curve" smooth="yes"/>
      <point x="453" y="30"/>
      <point x="516" y="185"/>
    </contour>
  </outline>
</glyph>
<glyph name="one" format="1">
  <advance width="258"/>
  <unicode hex="0031"/>
  <outline>
    <contour>
      <point x="186" y="0" type="line"/>
      <point x="141" y="0" type="line"/>
      <point x="141" y="644" type="line"/>
      <point x="116" y="607"/>
      <point x="62" y="577"/>
      <point x="13" y="570" type="curve"/>
      <point x="13" y="610" type="line"/>
      <point x="68" y="616"/>
      <point x="128" y="672"/>
      <point x="147" y="730" type="curve"/>
      <point x="186" y="730" type="line"/>
    </contour>
  </outline>
</glyph>
<glyph name="two" format="1">
  <advance width="515"/>
  <unicode hex="0032"/>
  <outline>
    <contour>
      <point x="472" y="0" type="line"/>
      <point x="22" y="0" type="line"/>
      <point x="343" y="381" type="line" smooth="yes"/>
      <point x="388" y="435"/>
      <point x="420" y="481"/>
      <point x="420" y="537" type="curve" smooth="yes"/>
      <point x="420" y="627"/>
      <point x="352" y="700"/>
      <point x="256" y="700" type="curve" smooth="yes"/>
      <point x="161" y="700"/>
      <point x="93" y="640"/>
      <point x="81" y="551" type="curve"/>
      <point x="35" y="551" type="line"/>
      <point x="49" y="663"/>
      <point x="142" y="742"/>
      <point x="254" y="742" type="curve" smooth="yes"/>
      <point x="374" y="742"/>
      <point x="468" y="654"/>
      <point x="468" y="540" type="curve" smooth="yes"/>
      <point x="468" y="470"/>
      <point x="427" y="413"/>
      <point x="376" y="353" type="curve" smooth="yes"/>
      <point x="115" y="44" type="line"/>
      <point x="472" y="44" type="line"/>
    </contour>
  </outline>
</glyph>
<glyph name="three" format="1">
  <advance width="548"/>
  <unicode hex="0033"/>
  <outline>
    <contour>
      <point x="502" y="208" type="curve" smooth="yes"/>
      <point x="502" y="75"/>
      <point x="412" y="-12"/>
      <point x="266" y="-12" type="curve" smooth="yes"/>
      <point x="158" y="-12"/>
      <point x="67" y="41"/>
      <point x="18" y="107" type="curve"/>
      <point x="52" y="134" type="line"/>
      <point x="105" y="70"/>
      <point x="175" y="30"/>
      <point x="267" y="30" type="curve" smooth="yes"/>
      <point x="375" y="30"/>
      <point x="455" y="91"/>
      <point x="455" y="202" type="curve" smooth="yes"/>
      <point x="455" y="306"/>
      <point x="385" y="372"/>
      <point x="245" y="372" type="curve" smooth="yes"/>
      <point x="189" y="372" type="line"/>
      <point x="189" y="412" type="line"/>
      <point x="243" y="412" type="line" smooth="yes"/>
      <point x="357" y="412"/>
      <point x="426" y="467"/>
      <point x="426" y="561" type="curve" smooth="yes"/>
      <point x="426" y="645"/>
      <point x="357" y="700"/>
      <point x="269" y="700" type="curve" smooth="yes"/>
      <point x="187" y="700"/>
      <point x="127" y="662"/>
      <point x="92" y="612" type="curve"/>
      <point x="55" y="635" type="line"/>
      <point x="107" y="704"/>
      <point x="180" y="742"/>
      <point x="272" y="742" type="curve" smooth="yes"/>
      <point x="379" y="742"/>
      <point x="473" y="672"/>
      <point x="473" y="567" type="curve" smooth="yes"/>
      <point x="473" y="481"/>
      <point x="426" y="422"/>
      <point x="351" y="394" type="curve"/>
      <point x="439" y="372"/>
      <point x="502" y="303"/>
    </contour>
  </outline>
</glyph>
<glyph name="four" format="1">
  <advance width="539"/>
  <unicode hex="0034"/>
  <outline>
    <contour>
      <point x="519" y="196" type="line"/>
      <point x="402" y="196" type="line"/>
      <point x="402" y="0" type="line"/>
      <point x="357" y="0" type="line"/>
      <point x="357" y="196" type="line"/>
      <point x="21" y="196" type="line"/>
      <point x="21" y="228" type="line"/>
      <point x="375" y="730" type="line"/>
      <point x="402" y="730" type="line"/>
      <point x="402" y="236" type="line"/>
      <point x="519" y="236" type="line"/>
    </contour>
    <contour>
      <point x="357" y="236" type="line"/>
      <point x="357" y="634" type="line"/>
      <point x="77" y="236" type="line"/>
    </contour>
  </outline>
</glyph>
<glyph name="five" format="1">
  <advance width="577"/>
  <unicode hex="0035"/>
  <outline>
    <contour>
      <point x="523" y="250" type="curve" smooth="yes"/>
      <point x="523" y="108"/>
      <point x="428" y="-12"/>
      <point x="270" y="-12" type="curve" smooth="yes"/>
      <point x="180" y="-12"/>
      <point x="95" y="33"/>
      <point x="42" y="91" type="curve"/>
      <point x="75" y="119" type="line"/>
      <point x="126" y="65"/>
      <point x="193" y="30"/>
      <point x="272" y="30" type="curve" smooth="yes"/>
      <point x="398" y="30"/>
      <point x="476" y="128"/>
      <point x="476" y="244" type="curve" smooth="yes"/>
      <point x="476" y="384"/>
      <point x="389" y="459"/>
      <point x="279" y="459" type="curve" smooth="yes"/>
      <point x="198" y="459"/>
      <point x="142" y="413"/>
      <point x="108" y="348" type="curve"/>
      <point x="73" y="368" type="line"/>
      <point x="94" y="730" type="line"/>
      <point x="470" y="730" type="line"/>
      <point x="470" y="690" type="line"/>
      <point x="137" y="690" type="line"/>
      <point x="121" y="431" type="line"/>
      <point x="159" y="471"/>
      <point x="212" y="501"/>
      <point x="284" y="501" type="curve" smooth="yes"/>
      <point x="417" y="501"/>
      <point x="523" y="403"/>
    </contour>
  </outline>
</glyph>
<glyph name="six" format="1">
  <advance width="566"/>
  <unicode hex="0036"/>
  <outline>
    <contour>
      <point x="527" y="247" type="curve" smooth="yes"/>
      <point x="527" y="91"/>
      <point x="419" y="-12"/>
      <point x="280" y="-12" type="curve" smooth="yes"/>
      <point x="142" y="-12"/>
      <point x="40" y="79"/>
      <point x="40" y="231" type="curve" smooth="yes"/>
      <point x="40" y="435"/>
      <point x="173" y="611"/>
      <point x="290" y="730" type="curve"/>
      <point x="347" y="730" type="line"/>
      <point x="247" y="638"/>
      <point x="152" y="501"/>
      <point x="118" y="402" type="curve"/>
      <point x="152" y="448"/>
      <point x="220" y="480"/>
      <point x="290" y="480" type="curve" smooth="yes"/>
      <point x="427" y="480"/>
      <point x="527" y="384"/>
    </contour>
    <contour>
      <point x="480" y="241" type="curve" smooth="yes"/>
      <point x="480" y="369"/>
      <point x="400" y="438"/>
      <point x="284" y="438" type="curve" smooth="yes"/>
      <point x="180" y="438"/>
      <point x="87" y="351"/>
      <point x="87" y="238" type="curve" smooth="yes"/>
      <point x="87" y="106"/>
      <point x="168" y="33"/>
      <point x="283" y="33" type="curve" smooth="yes"/>
      <point x="400" y="33"/>
      <point x="480" y="123"/>
    </contour>
  </outline>
</glyph>
<glyph name="seven" format="1">
  <advance width="505"/>
  <unicode hex="0037"/>
  <outline>
    <contour>
      <point x="473" y="730" type="line"/>
      <point x="115" y="0" type="line"/>
      <point x="65" y="0" type="line"/>
      <point x="405" y="689" type="line"/>
      <point x="41" y="689" type="line"/>
      <point x="41" y="730" type="line"/>
    </contour>
  </outline>
</glyph>
<glyph name="eight" format="1">
  <advance width="602"/>
  <unicode hex="0038"/>
  <outline>
    <contour>
      <point x="564" y="201" type="curve" smooth="yes"/>
      <point x="564" y="71"/>
      <point x="445" y="-12"/>
      <point x="300" y="-12" type="curve" smooth="yes"/>
      <point x="156" y="-12"/>
      <point x="38" y="68"/>
      <point x="38" y="200" type="curve" smooth="yes"/>
      <point x="38" y="285"/>
      <point x="105" y="368"/>
      <point x="196" y="390" type="curve"/>
      <point x="134" y="410"/>
      <point x="78" y="480"/>
      <point x="78" y="554" type="curve" smooth="yes"/>
      <point x="78" y="671"/>
      <point x="174" y="742"/>
      <point x="301" y="742" type="curve" smooth="yes"/>
      <point x="428" y="742"/>
      <point x="524" y="671"/>
      <point x="524" y="558" type="curve" smooth="yes"/>
      <point x="524" y="480"/>
      <point x="468" y="410"/>
      <point x="403" y="391" type="curve"/>
      <point x="497" y="368"/>
      <point x="564" y="300"/>
    </contour>
    <contour>
      <point x="477" y="554" type="curve" smooth="yes"/>
      <point x="477" y="649"/>
      <point x="406" y="701"/>
      <point x="301" y="701" type="curve" smooth="yes"/>
      <point x="196" y="701"/>
      <point x="125" y="649"/>
      <point x="125" y="557" type="curve" smooth="yes"/>
      <point x="125" y="468"/>
      <point x="187" y="409"/>
      <point x="301" y="409" type="curve" smooth="yes"/>
      <point x="415" y="409"/>
      <point x="477" y="468"/>
    </contour>
    <contour>
      <point x="517" y="196" type="curve" smooth="yes"/>
      <point x="517" y="302"/>
      <point x="443" y="369"/>
      <point x="301" y="369" type="curve" smooth="yes"/>
      <point x="180" y="369"/>
      <point x="85" y="307"/>
      <point x="85" y="204" type="curve" smooth="yes"/>
      <point x="85" y="81"/>
      <point x="190" y="30"/>
      <point x="300" y="30" type="curve" smooth="yes"/>
      <point x="408" y="30"/>
      <point x="517" y="88"/>
    </contour>
  </outline>
</glyph>
<glyph name="nine" format="1">
  <advance width="566"/>
  <unicode hex="0039"/>
  <outline>
    <contour>
      <point x="518" y="490" type="curve" smooth="yes"/>
      <point x="518" y="275"/>
      <point x="379" y="92"/>
      <point x="269" y="-19" type="curve"/>
      <point x="235" y="14" type="line"/>
      <point x="324" y="93"/>
      <point x="399" y="205"/>
      <point x="439" y="304" type="curve"/>
      <point x="397" y="256"/>
      <point x="338" y="233"/>
      <point x="268" y="233" type="curve" smooth="yes"/>
      <point x="131" y="233"/>
      <point x="31" y="342"/>
      <point x="31" y="484" type="curve" smooth="yes"/>
      <point x="31" y="640"/>
      <point x="136" y="742"/>
      <point x="275" y="742" type="curve" smooth="yes"/>
      <point x="413" y="742"/>
      <point x="518" y="642"/>
    </contour>
    <contour>
      <point x="471" y="484" type="curve" smooth="yes"/>
      <point x="471" y="625"/>
      <point x="387" y="698"/>
      <point x="273" y="698" type="curve" smooth="yes"/>
      <point x="156" y="698"/>
      <point x="78" y="609"/>
      <point x="78" y="490" type="curve" smooth="yes"/>
      <point x="78" y="368"/>
      <point x="147" y="277"/>
      <point x="274" y="277" type="curve" smooth="yes"/>
      <point x="388" y="277"/>
      <point x="471" y="350"/>
    </contour>
  </outline>
</glyph>
<glyph name="colon" format="1">
  <advance width="165"/>
  <unicode hex="003A"/>
  <outline>
    <contour>
      <point x="105" y="341" type="line"/>
      <point x="60" y="341" type="line"/>
      <point x="60" y="425" type="line"/>
      <point x="105" y="425" type="line"/>
    </contour>
    <contour>
      <point x="105" y="0" type="line"/>
      <point x="60" y="0" type="line"/>
      <point x="60" y="84" type="line"/>
      <point x="105" y="84" type="line"/>
    </contour>
  </outline>
</glyph>
<glyph name="less" format="1">
  <advance width="350"/>
  <unicode hex="003C"/>
  <outline>
    <contour>
      <point x="309" y="102" type="line"/>
      <point x="38" y="303" type="line"/>
      <point x="38" y="346" type="line"/>
      <point x="309" y="545" type="line"/>
      <point x="309" y="494" type="line"/>
      <point x="75" y="325" type="line"/>
      <point x="309" y="155" type="line"/>
    </contour>
  </outline>
</glyph>
<glyph name="greater" format="1">
  <advance width="350"/>
  <unicode hex="003E"/>
  <outline>
    <contour>
      <point x="312" y="301" type="line"/>
      <point x="41" y="102" type="line"/>
      <point x="41" y="153" type="line"/>
      <point x="275" y="322" type="line"/>
      <point x="41" y="492" type="line"/>
      <point x="41" y="545" type="line"/>
      <point x="312" y="344" type="line"/>
    </contour>
  </outline>
</glyph>
<glyph name="question" format="1">
  <advance width="437"/>
  <unicode hex="003F"/>
  <outline>
    <contour>
      <point x="390" y="570" type="curve" smooth="yes"/>
      <point x="390" y="492"/>
      <point x="344" y="430"/>
      <point x="300" y="368" type="curve" smooth="yes"/>
      <point x="259" y="312"/>
      <point x="221" y="241"/>
      <point x="221" y="176" type="curve" smooth="yes"/>
      <point x="221" y="131" type="line"/>
      <point x="176" y="131" type="line"/>
      <point x="176" y="171" type="line" smooth="yes"/>
      <point x="176" y="259"/>
      <point x="222" y="328"/>
      <point x="266" y="393" type="curve" smooth="yes"/>
      <point x="306" y="451"/>
      <point x="343" y="504"/>
      <point x="343" y="564" type="curve" smooth="yes"/>
      <point x="343" y="640"/>
      <point x="282" y="700"/>
      <point x="205" y="700" type="curve" smooth="yes"/>
      <point x="144" y="700"/>
      <point x="95" y="670"/>
      <point x="67" y="614" type="curve"/>
      <point x="33" y="640" type="line"/>
      <point x="69" y="709"/>
      <point x="132" y="742"/>
      <point x="205" y="742" type="curve" smooth="yes"/>
      <point x="312" y="742"/>
      <point x="390" y="667"/>
    </contour>
    <contour>
      <point x="221" y="0" type="line"/>
      <point x="176" y="0" type="line"/>
      <point x="176" y="84" type="line"/>
      <point x="221" y="84" type="line"/>
    </contour>
  </outline>
</glyph>
<glyph name="A" format="1">
  <advance width="626"/>
  <unicode hex="0041"/>
  <outline>
    <contour>
      <point x="596" y="0" type="line"/>
      <point x="548" y="0" type="line"/>
      <point x="448" y="280" type="line"/>
      <point x="178" y="280" type="line"/>
      <point x="78" y="0" type="line"/>
      <point x="30" y="0" type="line"/>
      <point x="301" y="742" type="line"/>
      <point x="326" y="742" type="line"/>
    </contour>
    <contour>
      <point x="434" y="320" type="line"/>
      <point x="313" y="659" type="line"/>
      <point x="192" y="320" type="line"/>
    </contour>
  </outline>
</glyph>
<glyph name="B" format="1">
  <advance width="583"/>
  <unicode hex="0042"/>
  <outline>
    <contour>
      <point x="540" y="202" type="curve" smooth="yes"/>
      <point x="540" y="55"/>
      <point x="421" y="0"/>
      <point x="288" y="0" type="curve" smooth="yes"/>
      <point x="80" y="0" type="line"/>
      <point x="80" y="730" type="line"/>
      <point x="250" y="730" type="line" smooth="yes"/>
      <point x="383" y="730"/>
      <point x="479" y="670"/>
      <point x="479" y="552" type="curve" smooth="yes"/>
      <point x="479" y="470"/>
      <point x="428" y="411"/>
      <point x="353" y="387" type="curve"/>
      <point x="421" y="382"/>
      <point x="540" y="335"/>
    </contour>
    <contour>
      <point x="432" y="552" type="curve" smooth="yes"/>
      <point x="432" y="644"/>
      <point x="364" y="690"/>
      <point x="250" y="690" type="curve" smooth="yes"/>
      <point x="125" y="690" type="line"/>
      <point x="125" y="404" type="line"/>
      <point x="258" y="404" type="line" smooth="yes"/>
      <point x="346" y="404"/>
      <point x="432" y="451"/>
    </contour>
    <contour>
      <point x="493" y="202" type="curve" smooth="yes"/>
      <point x="493" y="318"/>
      <point x="377" y="363"/>
      <point x="279" y="363" type="curve" smooth="yes"/>
      <point x="125" y="363" type="line"/>
      <point x="125" y="40" type="line"/>
      <point x="288" y="40" type="line" smooth="yes"/>
      <point x="395" y="40"/>
      <point x="493" y="84"/>
    </contour>
  </outline>
</glyph>
<glyph name="C" format="1">
  <advance width="714"/>
  <unicode hex="0043"/>
  <outline>
    <contour>
      <point x="672" y="117" type="line"/>
      <point x="621" y="57"/>
      <point x="533" y="-12"/>
      <point x="398" y="-12" type="curve" smooth="yes"/>
      <point x="202" y="-12"/>
      <point x="45" y="151"/>
      <point x="45" y="365" type="curve" smooth="yes"/>
      <point x="45" y="564"/>
      <point x="199" y="742"/>
      <point x="398" y="742" type="curve" smooth="yes"/>
      <point x="506" y="742"/>
      <point x="601" y="698"/>
      <point x="658" y="627" type="curve"/>
      <point x="626" y="598" type="line"/>
      <point x="571" y="661"/>
      <point x="495" y="700"/>
      <point x="397" y="700" type="curve" smooth="yes"/>
      <point x="218" y="700"/>
      <point x="92" y="542"/>
      <point x="92" y="368" type="curve" smooth="yes"/>
      <point x="92" y="177"/>
      <point x="224" y="30"/>
      <point x="400" y="30" type="curve" smooth="yes"/>
      <point x="511" y="30"/>
      <point x="577" y="75"/>
      <point x="641" y="144" type="curve"/>
    </contour>
  </outline>
</glyph>
<glyph name="D" format="1">
  <advance width="654"/>
  <unicode hex="0044"/>
  <outline>
    <contour>
      <point x="609" y="372" type="curve" smooth="yes"/>
      <point x="609" y="139"/>
      <point x="442" y="0"/>
      <point x="230" y="0" type="curve" smooth="yes"/>
      <point x="80" y="0" type="line"/>
      <point x="80" y="730" type="line"/>
      <point x="230" y="730" type="line" smooth="yes"/>
      <point x="440" y="730"/>
      <point x="609" y="606"/>
    </contour>
    <contour>
      <point x="562" y="372" type="curve" smooth="yes"/>
      <point x="562" y="572"/>
      <point x="423" y="690"/>
      <point x="242" y="690" type="curve" smooth="yes"/>
      <point x="125" y="690" type="line"/>
      <point x="125" y="40" type="line"/>
      <point x="242" y="40" type="line" smooth="yes"/>
      <point x="423" y="40"/>
      <point x="562" y="172"/>
    </contour>
  </outline>
</glyph>
<glyph name="E" format="1">
  <advance width="519"/>
  <unicode hex="0045"/>
  <outline>
    <contour>
      <point x="468" y="0" type="line"/>
      <point x="80" y="0" type="line"/>
      <point x="80" y="730" type="line"/>
      <point x="449" y="730" type="line"/>
      <point x="449" y="690" type="line"/>
      <point x="125" y="690" type="line"/>
      <point x="125" y="405" type="line"/>
      <point x="417" y="405" type="line"/>
      <point x="417" y="365" type="line"/>
      <point x="125" y="365" type="line"/>
      <point x="125" y="40" type="line"/>
      <point x="468" y="40" type="line"/>
    </contour>
  </outline>
</glyph>
<glyph name="F" format="1">
  <advance width="446"/>
  <unicode hex="0046"/>
  <outline>
    <contour>
      <point x="406" y="690" type="line"/>
      <point x="125" y="690" type="line"/>
      <point x="125" y="401" type="line"/>
      <point x="379" y="401" type="line"/>
      <point x="379" y="361" type="line"/>
      <point x="125" y="361" type="line"/>
      <point x="125" y="0" type="line"/>
      <point x="80" y="0" type="line"/>
      <point x="80" y="730" type="line"/>
      <point x="406" y="730" type="line"/>
    </contour>
  </outline>
</glyph>
<glyph name="G" format="1">
  <advance width="806"/>
  <unicode hex="0047"/>
  <outline>
    <contour>
      <point x="770" y="294" type="line"/>
      <point x="761" y="130"/>
      <point x="615" y="-12"/>
      <point x="429" y="-12" type="curve" smooth="yes"/>
      <point x="213" y="-12"/>
      <point x="45" y="141"/>
      <point x="45" y="363" type="curve" smooth="yes"/>
      <point x="45" y="576"/>
      <point x="216" y="742"/>
      <point x="429" y="742" type="curve" smooth="yes"/>
      <point x="541" y="742"/>
      <point x="631" y="700"/>
      <point x="696" y="628" type="curve"/>
      <point x="666" y="597" type="line"/>
      <point x="594" y="674"/>
      <point x="527" y="700"/>
      <point x="426" y="700" type="curve" smooth="yes"/>
      <point x="238" y="700"/>
      <point x="92" y="553"/>
      <point x="92" y="363" type="curve" smooth="yes"/>
      <point x="92" y="161"/>
      <point x="238" y="30"/>
      <point x="429" y="30" type="curve" smooth="yes"/>
      <point x="571" y="30"/>
      <point x="695" y="124"/>
      <point x="721" y="253" type="curve"/>
      <point x="460" y="253" type="line"/>
      <point x="460" y="294" type="line"/>
    </contour>
  </outline>
</glyph>
<glyph name="H" format="1">
  <advance width="674"/>
  <unicode hex="0048"/>
  <outline>
    <contour>
      <point x="594" y="0" type="line"/>
      <point x="549" y="0" type="line"/>
      <point x="549" y="362" type="line"/>
      <point x="125" y="362" type="line"/>
      <point x="125" y="0" type="line"/>
      <point x="80" y="0" type="line"/>
      <point x="80" y="730" type="line"/>
      <point x="125" y="730" type="line"/>
      <point x="125" y="402" type="line"/>
      <point x="549" y="402" type="line"/>
      <point x="549" y="730" type="line"/>
      <point x="594" y="730" type="line"/>
    </contour>
  </outline>
</glyph>
<glyph name="J" format="1">
  <advance width="338"/>
  <unicode hex="004A"/>
  <outline>
    <contour>
      <point x="263" y="209" type="line" smooth="yes"/>
      <point x="263" y="69"/>
      <point x="165" y="-6"/>
      <point x="72" y="-6" type="curve" smooth="yes"/>
      <point x="26" y="-6" type="line"/>
      <point x="26" y="34" type="line"/>
      <point x="78" y="34" type="line" smooth="yes"/>
      <point x="155" y="34"/>
      <point x="218" y="111"/>
      <point x="218" y="200" type="curve" smooth="yes"/>
      <point x="218" y="730" type="line"/>
      <point x="263" y="730" type="line"/>
    </contour>
  </outline>
</glyph>
<glyph name="K" format="1">
  <advance width="550"/>
  <unicode hex="004B"/>
  <outline>
    <contour>
      <point x="521" y="0" type="line"/>
      <point x="466" y="0" type="line"/>
      <point x="173" y="384" type="line"/>
      <point x="125" y="332" type="line"/>
      <point x="125" y="0" type="line"/>
      <point x="80" y="0" type="line"/>
      <point x="80" y="730" type="line"/>
      <point x="125" y="730" type="line"/>
      <point x="125" y="390" type="line"/>
      <point x="437" y="730" type="line"/>
      <point x="491" y="730" type="line"/>
      <point x="203" y="417" type="line"/>
    </contour>
  </outline>
</glyph>
<glyph name="L" format="1">
  <advance width="484"/>
  <unicode hex="004C"/>
  <outline>
    <contour>
      <point x="458" y="0" type="line"/>
      <point x="80" y="0" type="line"/>
      <point x="80" y="730" type="line"/>
      <point x="125" y="730" type="line"/>
      <point x="125" y="40" type="line"/>
      <point x="458" y="40" type="line"/>
    </contour>
  </outline>
</glyph>
<glyph name="M" format="1">
  <advance width="779"/>
  <unicode hex="004D"/>
  <outline>
    <contour>
      <point x="699" y="0" type="line"/>
      <point x="654" y="0" type="line"/>
      <point x="654" y="666" type="line"/>
      <point x="404" y="278" type="line"/>
      <point x="374" y="278" type="line"/>
      <point x="125" y="664" type="line"/>
      <point x="125" y="0" type="line"/>
      <point x="80" y="0" type="line"/>
      <point x="80" y="730" type="line"/>
      <point x="134" y="730" type="line"/>
      <point x="390" y="332" type="line"/>
      <point x="644" y="730" type="line"/>
      <point x="699" y="730" type="line"/>
    </contour>
  </outline>
</glyph>
<glyph name="N" format="1">
  <advance width="729"/>
  <unicode hex="004E"/>
  <outline>
    <contour>
      <point x="649" y="0" type="line"/>
      <point x="597" y="0" type="line"/>
      <point x="123" y="672" type="line"/>
      <point x="123" y="672"/>
      <point x="125" y="647"/>
      <point x="125" y="618" type="curve" smooth="yes"/>
      <point x="125" y="0" type="line"/>
      <point x="80" y="0" type="line"/>
      <point x="80" y="730" type="line"/>
      <point x="136" y="730" type="line"/>
      <point x="606" y="61" type="line"/>
      <point x="606" y="61"/>
      <point x="604" y="86"/>
      <point x="604" y="115" type="curve" smooth="yes"/>
      <point x="604" y="730" type="line"/>
      <point x="649" y="730" type="line"/>
    </contour>
  </outline>
</glyph>
<glyph name="O" format="1">
  <advance width="810"/>
  <unicode hex="004F"/>
  <outline>
    <contour>
      <point x="765" y="366" type="curve" smooth="yes"/>
      <point x="765" y="153"/>
      <point x="608" y="-12"/>
      <point x="406" y="-12" type="curve" smooth="yes"/>
      <point x="204" y="-12"/>
      <point x="45" y="152"/>
      <point x="45" y="365" type="curve" smooth="yes"/>
      <point x="45" y="578"/>
      <point x="204" y="742"/>
      <point x="406" y="742" type="curve" smooth="yes"/>
      <point x="608" y="742"/>
      <point x="765" y="579"/>
    </contour>
    <contour>
      <point x="718" y="365" type="curve" smooth="yes"/>
      <point x="718" y="555"/>
      <point x="585" y="700"/>
      <point x="406" y="700" type="curve" smooth="yes"/>
      <point x="229" y="700"/>
      <point x="92" y="555"/>
      <point x="92" y="365" type="curve" smooth="yes"/>
      <point x="92" y="175"/>
      <point x="229" y="30"/>
      <point x="406" y="30" type="curve" smooth="yes"/>
      <point x="583" y="30"/>
      <point x="718" y="175"/>
    </contour>
  </outline>
</glyph>
<glyph name="P" format="1">
  <advance width="523"/>
  <unicode hex="0050"/>
  <outline>
    <contour>
      <point x="483" y="532" type="curve" smooth="yes"/>
      <point x="483" y="406"/>
      <point x="398" y="318"/>
      <point x="240" y="318" type="curve" smooth="yes"/>
      <point x="125" y="318" type="line"/>
      <point x="125" y="0" type="line"/>
      <point x="80" y="0" type="line"/>
      <point x="80" y="730" type="line"/>
      <point x="240" y="730" type="line" smooth="yes"/>
      <point x="402" y="730"/>
      <point x="483" y="647"/>
    </contour>
    <contour>
      <point x="436" y="528" type="curve" smooth="yes"/>
      <point x="436" y="629"/>
      <point x="375" y="690"/>
      <point x="232" y="690" type="curve" smooth="yes"/>
      <point x="125" y="690" type="line"/>
      <point x="125" y="358" type="line"/>
      <point x="250" y="358" type="line" smooth="yes"/>
      <point x="384" y="358"/>
      <point x="436" y="435"/>
    </contour>
  </outline>
</glyph>
<glyph name="Q" format="1">
  <advance width="810"/>
  <unicode hex="0051"/>
  <outline>
    <contour>
      <point x="765" y="366" type="curve" smooth="yes"/>
      <point x="765" y="240"/>
      <point x="710" y="131"/>
      <point x="624" y="63" type="curve"/>
      <point x="654" y="42"/>
      <point x="686" y="26"/>
      <point x="708" y="22" type="curve"/>
      <point x="670" y="-15" type="line"/>
      <point x="643" y="-5"/>
      <point x="613" y="14"/>
      <point x="585" y="36" type="curve"/>
      <point x="533" y="6"/>
      <point x="472" y="-12"/>
      <point x="406" y="-12" type="curve" smooth="yes"/>
      <point x="204" y="-12"/>
      <point x="45" y="152"/>
      <point x="45" y="365" type="curve" smooth="yes"/>
      <point x="45" y="578"/>
      <point x="204" y="742"/>
      <point x="406" y="742" type="curve" smooth="yes"/>
      <point x="608" y="742"/>
      <point x="765" y="579"/>
    </contour>
    <contour>
      <point x="718" y="365" type="curve" smooth="yes"/>
      <point x="718" y="555"/>
      <point x="585" y="700"/>
      <point x="406" y="700" type="curve" smooth="yes"/>
      <point x="229" y="700"/>
      <point x="92" y="555"/>
      <point x="92" y="365" type="curve" smooth="yes"/>
      <point x="92" y="175"/>
      <point x="229" y="30"/>
      <point x="406" y="30" type="curve" smooth="yes"/>
      <point x="459" y="30"/>
      <point x="509" y="43"/>
      <point x="552" y="66" type="curve"/>
      <point x="529" y="88"/>
      <point x="510" y="111"/>
      <point x="500" y="129" type="curve"/>
      <point x="532" y="151" type="line"/>
      <point x="542" y="133"/>
      <point x="563" y="111"/>
      <point x="588" y="90" type="curve"/>
      <point x="668" y="150"/>
      <point x="718" y="249"/>
    </contour>
  </outline>
</glyph>
<glyph name="R" format="1">
  <advance width="542"/>
  <unicode hex="0052"/>
  <outline>
    <contour>
      <point x="496" y="0" type="line"/>
      <point x="438" y="0" type="line"/>
      <point x="125" y="350" type="line"/>
      <point x="125" y="0" type="line"/>
      <point x="80" y="0" type="line"/>
      <point x="80" y="730" type="line"/>
      <point x="259" y="730" type="line" smooth="yes"/>
      <point x="383" y="730"/>
      <point x="490" y="655"/>
      <point x="490" y="528" type="curve" smooth="yes"/>
      <point x="490" y="394"/>
      <point x="379" y="319"/>
      <point x="248" y="319" type="curve" smooth="yes"/>
      <point x="213" y="319" type="line"/>
    </contour>
    <contour>
      <point x="443" y="528" type="curve" smooth="yes"/>
      <point x="443" y="638"/>
      <point x="356" y="690"/>
      <point x="259" y="690" type="curve" smooth="yes"/>
      <point x="125" y="690" type="line"/>
      <point x="125" y="359" type="line"/>
      <point x="248" y="359" type="line" smooth="yes"/>
      <point x="351" y="359"/>
      <point x="443" y="410"/>
    </contour>
  </outline>
</glyph>
<glyph name="S" format="1">
  <advance width="482"/>
  <unicode hex="0053"/>
  <outline>
    <contour>
      <point x="442" y="174" type="curve" smooth="yes"/>
      <point x="442" y="65"/>
      <point x="343" y="-12"/>
      <point x="237" y="-12" type="curve" smooth="yes"/>
      <point x="167" y="-12"/>
      <point x="95" y="16"/>
      <point x="45" y="64" type="curve"/>
      <point x="74" y="96" type="line"/>
      <point x="119" y="56"/>
      <point x="174" y="30"/>
      <point x="237" y="30" type="curve" smooth="yes"/>
      <point x="321" y="30"/>
      <point x="395" y="87"/>
      <point x="395" y="172" type="curve" smooth="yes"/>
      <point x="395" y="276"/>
      <point x="310" y="319"/>
      <point x="226" y="363" type="curve" smooth="yes"/>
      <point x="140" y="408"/>
      <point x="55" y="455"/>
      <point x="55" y="567" type="curve" smooth="yes"/>
      <point x="55" y="674"/>
      <point x="140" y="742"/>
      <point x="237" y="742" type="curve" smooth="yes"/>
      <point x="312" y="742"/>
      <point x="371" y="721"/>
      <point x="422" y="663" type="curve"/>
      <point x="388" y="634" type="line"/>
      <point x="343" y="686"/>
      <point x="299" y="700"/>
      <point x="237" y="700" type="curve" smooth="yes"/>
      <point x="167" y="700"/>
      <point x="102" y="653"/>
      <point x="102" y="567" type="curve" smooth="yes"/>
      <point x="102" y="476"/>
      <point x="181" y="437"/>
      <point x="263" y="394" type="curve" smooth="yes"/>
      <point x="351" y="348"/>
      <point x="442" y="298"/>
    </contour>
  </outline>
</glyph>
<glyph name="T" format="1">
  <advance width="476"/>
  <unicode hex="0054"/>
  <outline>
    <contour>
      <point x="446" y="690" type="line"/>
      <point x="261" y="690" type="line"/>
      <point x="261" y="0" type="line"/>
      <point x="216" y="0" type="line"/>
      <point x="216" y="690" type="line"/>
      <point x="30" y="690" type="line"/>
      <point x="30" y="730" type="line"/>
      <point x="446" y="730" type="line"/>
    </contour>
  </outline>
</glyph>
<glyph name="U" format="1">
  <advance width="671"/>
  <unicode hex="0055"/>
  <outline>
    <contour>
      <point x="596" y="265" type="line" smooth="yes"/>
      <point x="596" y="98"/>
      <point x="480" y="-12"/>
      <point x="335" y="-12" type="curve" smooth="yes"/>
      <point x="190" y="-12"/>
      <point x="75" y="98"/>
      <point x="75" y="265" type="curve" smooth="yes"/>
      <point x="75" y="730" type="line"/>
      <point x="120" y="730" type="line"/>
      <point x="120" y="265" type="line" smooth="yes"/>
      <point x="120" y="131"/>
      <point x="216" y="30"/>
      <point x="335" y="30" type="curve" smooth="yes"/>
      <point x="454" y="30"/>
      <point x="551" y="131"/>
      <point x="551" y="265" type="curve" smooth="yes"/>
      <point x="551" y="730" type="line"/>
      <point x="596" y="730" type="line"/>
    </contour>
  </outline>
</glyph>
<glyph name="V" format="1">
  <advance width="657"/>
  <unicode hex="0056"/>
  <outline>
    <contour>
      <point x="627" y="730" type="line"/>
      <point x="327" y="-29" type="line"/>
      <point x="30" y="730" type="line"/>
      <point x="78" y="730" type="line"/>
      <point x="319" y="113" type="line" smooth="yes"/>
      <point x="324" y="101"/>
      <point x="329" y="82"/>
      <point x="329" y="82" type="curve"/>
      <point x="329" y="82"/>
      <point x="334" y="101"/>
      <point x="338" y="112" type="curve" smooth="yes"/>
      <point x="582" y="730" type="line"/>
    </contour>
  </outline>
</glyph>
<glyph name="W" format="1">
  <advance width="928"/>
  <unicode hex="0057"/>
  <outline>
    <contour>
      <point x="898" y="730" type="line"/>
      <point x="676" y="0" type="line"/>
      <point x="642" y="0" type="line"/>
      <point x="473" y="606" type="line" smooth="yes"/>
      <point x="470" y="617"/>
      <point x="467" y="636"/>
      <point x="467" y="636" type="curve"/>
      <point x="467" y="636"/>
      <point x="464" y="617"/>
      <point x="461" y="607" type="curve" smooth="yes"/>
      <point x="291" y="0" type="line"/>
      <point x="257" y="0" type="line"/>
      <point x="30" y="730" type="line"/>
      <point x="78" y="730" type="line"/>
      <point x="266" y="114" type="line" smooth="yes"/>
      <point x="269" y="103"/>
      <point x="274" y="87"/>
      <point x="274" y="87" type="curve"/>
      <point x="274" y="87"/>
      <point x="277" y="102"/>
      <point x="280" y="112" type="curve" smooth="yes"/>
      <point x="450" y="730" type="line"/>
      <point x="482" y="730" type="line"/>
      <point x="654" y="112" type="line" smooth="yes"/>
      <point x="657" y="102"/>
      <point x="660" y="87"/>
      <point x="660" y="87" type="curve"/>
      <point x="660" y="87"/>
      <point x="665" y="103"/>
      <point x="668" y="114" type="curve" smooth="yes"/>
      <point x="851" y="730" type="line"/>
    </contour>
  </outline>
</glyph>
<glyph name="X" format="1">
  <advance width="677"/>
  <unicode hex="0058"/>
  <outline>
    <contour>
      <point x="647" y="0" type="line"/>
      <point x="593" y="0" type="line"/>
      <point x="340" y="361" type="line"/>
      <point x="83" y="0" type="line"/>
      <point x="30" y="0" type="line"/>
      <point x="314" y="397" type="line"/>
      <point x="78" y="730" type="line"/>
      <point x="130" y="730" type="line"/>
      <point x="340" y="435" type="line"/>
      <point x="551" y="730" type="line"/>
      <point x="600" y="730" type="line"/>
      <point x="366" y="397" type="line"/>
    </contour>
  </outline>
</glyph>
<glyph name="Y" format="1">
  <advance width="628"/>
  <unicode hex="0059"/>
  <outline>
    <contour>
      <point x="600" y="730" type="line"/>
      <point x="335" y="348" type="line"/>
      <point x="335" y="0" type="line"/>
      <point x="290" y="0" type="line"/>
      <point x="290" y="349" type="line"/>
      <point x="28" y="730" type="line"/>
      <point x="80" y="730" type="line"/>
      <point x="315" y="390" type="line"/>
      <point x="549" y="730" type="line"/>
    </contour>
  </outline>
</glyph>
<glyph name="Z" format="1">
  <advance width="627"/>
  <unicode hex="005A"/>
  <outline>
    <contour>
      <point x="575" y="0" type="line"/>
      <point x="44" y="0" type="line"/>
      <point x="498" y="690" type="line"/>
      <point x="96" y="690" type="line"/>
      <point x="96" y="730" type="line"/>
      <point x="573" y="730" type="line"/>
      <point x="120" y="40" type="line"/>
      <point x="575" y="40" type="line"/>
    </contour>
  </outline>
</glyph>
<glyph name="bracketleft" format="1">
  <advance width="255"/>
  <unicode hex="005B"/>
  <outline>
    <contour>
      <point x="225" y="-179" type="line"/>
      <point x="75" y="-179" type="line"/>
      <point x="75" y="730" type="line"/>
      <point x="225" y="730" type="line"/>
      <point x="225" y="693" type="line"/>
      <point x="118" y="693" type="line"/>
      <point x="118" y="-142" type="line"/>
      <point x="225" y="-142" type="line"/>
    </contour>
  </outline>
</glyph>
<glyph name="backslash" format="1">
  <advance width="372"/>
  <unicode hex="005C"/>
  <outline>
    <contour>
      <point x="332" y="0" type="line"/>
      <point x="287" y="0" type="line"/>
      <point x="40" y="730" type="line"/>
      <point x="85" y="730" type="line"/>
    </contour>
  </outline>
</glyph>
<glyph name="bracketright" format="1">
  <advance width="255"/>
  <unicode hex="005D"/>
  <outline>
    <contour>
      <point x="180" y="-179" type="line"/>
      <point x="30" y="-179" type="line"/>
      <point x="30" y="-142" type="line"/>
      <point x="137" y="-142" type="line"/>
      <point x="137" y="693" type="line"/>
      <point x="30" y="693" type="line"/>
      <point x="30" y="730" type="line"/>
      <point x="180" y="730" type="line"/>
    </contour>
  </outline>
</glyph>
<glyph name="asciicircum" format="1">
  <advance width="483"/>
  <unicode hex="005E"/>
  <outline>
    <contour>
      <point x="440" y="369" type="line"/>
      <point x="392" y="369" type="line"/>
      <point x="239" y="681" type="line"/>
      <point x="87" y="369" type="line"/>
      <point x="37" y="369" type="line"/>
      <point x="218" y="730" type="line"/>
      <point x="261" y="730" type="line"/>
    </contour>
  </outline>
</glyph>
<glyph name="grave" format="1">
  <advance width="440"/>
  <unicode hex="0060"/>
  <outline>
    <contour>
      <point x="282" y="484" type="line"/>
      <point x="235" y="484" type="line"/>
      <point x="153" y="614" type="line"/>
      <point x="200" y="614" type="line"/>
    </contour>
  </outline>
</glyph>
<glyph name="a" format="1">
  <advance width="426"/>
  <unicode hex="0061"/>
  <outline>
    <contour>
      <point x="368" y="0" type="line"/>
      <point x="327" y="0" type="line"/>
      <point x="327" y="46" type="line"/>
      <point x="293" y="16"/>
      <point x="242" y="-12"/>
      <point x="179" y="-12" type="curve" smooth="yes"/>
      <point x="100" y="-12"/>
      <point x="35" y="32"/>
      <point x="35" y="114" type="curve" smooth="yes"/>
      <point x="35" y="208"/>
      <point x="112" y="254"/>
      <point x="245" y="254" type="curve" smooth="yes"/>
      <point x="327" y="254" type="line"/>
      <point x="327" y="287" type="line" smooth="yes"/>
      <point x="327" y="362"/>
      <point x="269" y="375"/>
      <point x="213" y="375" type="curve" smooth="yes"/>
      <point x="164" y="375"/>
      <point x="125" y="366"/>
      <point x="92" y="346" type="curve"/>
      <point x="75" y="380" type="line"/>
      <point x="112" y="401"/>
      <point x="158" y="413"/>
      <point x="213" y="413" type="curve" smooth="yes"/>
      <point x="321" y="413"/>
      <point x="368" y="364"/>
      <point x="368" y="291" type="curve" smooth="yes"/>
    </contour>
    <contour>
      <point x="327" y="87" type="curve"/>
      <point x="327" y="218" type="line"/>
      <point x="249" y="218" type="line" smooth="yes"/>
      <point x="140" y="218"/>
      <point x="78" y="188"/>
      <point x="78" y="114" type="curve" smooth="yes"/>
      <point x="78" y="58"/>
      <point x="123" y="26"/>
      <point x="179" y="26" type="curve" smooth="yes"/>
      <point x="238" y="26"/>
      <point x="292" y="57"/>
    </contour>
  </outline>
</glyph>
<glyph name="b" format="1">
  <advance width="486"/>
  <unicode hex="0062"/>
  <outline>
    <contour>
      <point x="453" y="200" type="curve" smooth="yes"/>
      <point x="453" y="89"/>
      <point x="379" y="-12"/>
      <point x="258" y="-12" type="curve" smooth="yes"/>
      <point x="186" y="-12"/>
      <point x="128" y="34"/>
      <point x="106" y="83" type="curve"/>
      <point x="106" y="0" type="line"/>
      <point x="65" y="0" type="line"/>
      <point x="65" y="730" type="line"/>
      <point x="106" y="730" type="line"/>
      <point x="106" y="318" type="line"/>
      <point x="128" y="367"/>
      <point x="187" y="413"/>
      <point x="259" y="413" type="curve" smooth="yes"/>
      <point x="373" y="413"/>
      <point x="453" y="335"/>
    </contour>
    <contour>
      <point x="410" y="199" type="curve" smooth="yes"/>
      <point x="410" y="306"/>
      <point x="356" y="375"/>
      <point x="256" y="375" type="curve" smooth="yes"/>
      <point x="169" y="375"/>
      <point x="106" y="290"/>
      <point x="106" y="202" type="curve" smooth="yes"/>
      <point x="106" y="103"/>
      <point x="171" y="26"/>
      <point x="261" y="26" type="curve" smooth="yes"/>
      <point x="358" y="26"/>
      <point x="410" y="110"/>
    </contour>
  </outline>
</glyph>
<glyph name="c" format="1">
  <advance width="428"/>
  <unicode hex="0063"/>
  <outline>
    <contour>
      <point x="403" y="87" type="line"/>
      <point x="367" y="31"/>
      <point x="309" y="-12"/>
      <point x="232" y="-12" type="curve" smooth="yes"/>
      <point x="118" y="-12"/>
      <point x="33" y="82"/>
      <point x="33" y="202" type="curve" smooth="yes"/>
      <point x="33" y="320"/>
      <point x="119" y="413"/>
      <point x="229" y="413" type="curve" smooth="yes"/>
      <point x="316" y="413"/>
      <point x="366" y="372"/>
      <point x="396" y="336" type="curve"/>
      <point x="363" y="310" type="line"/>
      <point x="331" y="350"/>
      <point x="290" y="375"/>
      <point x="235" y="375" type="curve" smooth="yes"/>
      <point x="141" y="375"/>
      <point x="76" y="298"/>
      <point x="76" y="204" type="curve" smooth="yes"/>
      <point x="76" y="107"/>
      <point x="141" y="26"/>
      <point x="229" y="26" type="curve" smooth="yes"/>
      <point x="293" y="26"/>
      <point x="336" y="57"/>
      <point x="371" y="108" type="curve"/>
    </contour>
  </outline>
</glyph>
<glyph name="d" format="1">
  <advance width="486"/>
  <unicode hex="0064"/>
  <outline>
    <contour>
      <point x="421" y="0" type="line"/>
      <point x="380" y="0" type="line"/>
      <point x="380" y="83" type="line"/>
      <point x="358" y="34"/>
      <point x="293" y="-12"/>
      <point x="221" y="-12" type="curve" smooth="yes"/>
      <point x="104" y="-12"/>
      <point x="33" y="87"/>
      <point x="33" y="198" type="curve" smooth="yes"/>
      <point x="33" y="333"/>
      <point x="123" y="413"/>
      <point x="230" y="413" type="curve" smooth="yes"/>
      <point x="300" y="413"/>
      <point x="358" y="367"/>
      <point x="380" y="318" type="curve"/>
      <point x="380" y="730" type="line"/>
      <point x="421" y="730" type="line"/>
    </contour>
    <contour>
      <point x="380" y="202" type="curve" smooth="yes"/>
      <point x="380" y="290"/>
      <point x="318" y="375"/>
      <point x="226" y="375" type="curve" smooth="yes"/>
      <point x="136" y="375"/>
      <point x="76" y="308"/>
      <point x="76" y="201" type="curve" smooth="yes"/>
      <point x="76" y="108"/>
      <point x="126" y="26"/>
      <point x="224" y="26" type="curve" smooth="yes"/>
      <point x="314" y="26"/>
      <point x="380" y="103"/>
    </contour>
  </outline>
</glyph>
<glyph name="e" format="1">
  <advance width="444"/>
  <unicode hex="0065"/>
  <outline>
    <contour>
      <point x="416" y="206" type="curve"/>
      <point x="76" y="206" type="line"/>
      <point x="77" y="104"/>
      <point x="135" y="26"/>
      <point x="238" y="26" type="curve" smooth="yes"/>
      <point x="297" y="26"/>
      <point x="341" y="48"/>
      <point x="378" y="86" type="curve"/>
      <point x="407" y="61" type="line"/>
      <point x="379" y="26"/>
      <point x="321" y="-12"/>
      <point x="236" y="-12" type="curve" smooth="yes"/>
      <point x="99" y="-12"/>
      <point x="33" y="92"/>
      <point x="33" y="207" type="curve" smooth="yes"/>
      <point x="33" y="311"/>
      <point x="97" y="413"/>
      <point x="230" y="413" type="curve" smooth="yes"/>
      <point x="358" y="413"/>
      <point x="411" y="309"/>
    </contour>
    <contour>
      <point x="366" y="242" type="line"/>
      <point x="361" y="304"/>
      <point x="317" y="375"/>
      <point x="228" y="375" type="curve" smooth="yes"/>
      <point x="134" y="375"/>
      <point x="89" y="314"/>
      <point x="78" y="242" type="curve"/>
    </contour>
  </outline>
</glyph>
<glyph name="f" format="1">
  <advance width="203"/>
  <unicode hex="0066"/>
  <outline>
    <contour>
      <point x="192" y="365" type="line"/>
      <point x="118" y="365" type="line"/>
      <point x="118" y="0" type="line"/>
      <point x="77" y="0" type="line"/>
      <point x="77" y="365" type="line"/>
      <point x="7" y="365" type="line"/>
      <point x="7" y="401" type="line"/>
      <point x="77" y="401" type="line"/>
      <point x="77" y="642" type="line" smooth="yes"/>
      <point x="77" y="704"/>
      <point x="112" y="730"/>
      <point x="158" y="730" type="curve" smooth="yes"/>
      <point x="192" y="730" type="line"/>
      <point x="192" y="692" type="line"/>
      <point x="161" y="692" type="line" smooth="yes"/>
      <point x="135" y="692"/>
      <point x="118" y="679"/>
      <point x="118" y="635" type="curve" smooth="yes"/>
      <point x="118" y="401" type="line"/>
      <point x="192" y="401" type="line"/>
    </contour>
  </outline>
</glyph>
<glyph name="g" format="1">
  <advance width="486"/>
  <unicode hex="0067"/>
  <outline>
    <contour>
      <point x="421" y="3" type="line" smooth="yes"/>
      <point x="421" y="-119"/>
      <point x="335" y="-191"/>
      <point x="228" y="-191" type="curve" smooth="yes"/>
      <point x="163" y="-191"/>
      <point x="99" y="-167"/>
      <point x="54" y="-120" type="curve"/>
      <point x="83" y="-94" type="line"/>
      <point x="118" y="-132"/>
      <point x="172" y="-153"/>
      <point x="230" y="-153" type="curve" smooth="yes"/>
      <point x="311" y="-153"/>
      <point x="380" y="-99"/>
      <point x="380" y="0" type="curve" smooth="yes"/>
      <point x="380" y="83" type="line"/>
      <point x="358" y="34"/>
      <point x="299" y="-12"/>
      <point x="227" y="-12" type="curve" smooth="yes"/>
      <point x="113" y="-12"/>
      <point x="33" y="66"/>
      <point x="33" y="201" type="curve" smooth="yes"/>
      <point x="33" y="312"/>
      <point x="107" y="413"/>
      <point x="228" y="413" type="curve" smooth="yes"/>
      <point x="300" y="413"/>
      <point x="358" y="367"/>
      <point x="380" y="318" type="curve"/>
      <point x="380" y="401" type="line"/>
      <point x="421" y="401" type="line"/>
    </contour>
    <contour>
      <point x="380" y="199" type="curve" smooth="yes"/>
      <point x="380" y="298"/>
      <point x="315" y="375"/>
      <point x="225" y="375" type="curve" smooth="yes"/>
      <point x="128" y="375"/>
      <point x="76" y="291"/>
      <point x="76" y="202" type="curve" smooth="yes"/>
      <point x="76" y="95"/>
      <point x="130" y="26"/>
      <point x="230" y="26" type="curve" smooth="yes"/>
      <point x="317" y="26"/>
      <point x="380" y="111"/>
    </contour>
  </outline>
</glyph>
<glyph name="i" format="1">
  <advance width="171"/>
  <unicode hex="0069"/>
  <outline>
    <contour>
      <point x="106" y="513" type="line"/>
      <point x="65" y="513" type="line"/>
      <point x="65" y="593" type="line"/>
      <point x="106" y="593" type="line"/>
    </contour>
    <contour>
      <point x="106" y="0" type="line"/>
      <point x="65" y="0" type="line"/>
      <point x="65" y="401" type="line"/>
      <point x="106" y="401" type="line"/>
    </contour>
  </outline>
</glyph>
<glyph name="j" format="1">
  <advance width="171"/>
  <unicode hex="006A"/>
  <outline>
    <contour>
      <point x="106" y="513" type="line"/>
      <point x="65" y="513" type="line"/>
      <point x="65" y="593" type="line"/>
      <point x="106" y="593" type="line"/>
    </contour>
    <contour>
      <point x="106" y="-131" type="line" smooth="yes"/>
      <point x="106" y="-168"/>
      <point x="78" y="-188"/>
      <point x="40" y="-188" type="curve" smooth="yes"/>
      <point x="22" y="-188"/>
      <point x="7" y="-186"/>
      <point x="-4" y="-183" type="curve"/>
      <point x="-12" y="-147" type="line"/>
      <point x="-1" y="-151"/>
      <point x="15" y="-153"/>
      <point x="29" y="-153" type="curve" smooth="yes"/>
      <point x="50" y="-153"/>
      <point x="65" y="-144"/>
      <point x="65" y="-120" type="curve" smooth="yes"/>
      <point x="65" y="401" type="line"/>
      <point x="106" y="401" type="line"/>
    </contour>
  </outline>
</glyph>
<glyph name="k" format="1">
  <advance width="412"/>
  <unicode hex="006B"/>
  <outline>
    <contour>
      <point x="395" y="0" type="line"/>
      <point x="339" y="0" type="line"/>
      <point x="157" y="201" type="line"/>
      <point x="106" y="153" type="line"/>
      <point x="106" y="0" type="line"/>
      <point x="65" y="0" type="line"/>
      <point x="65" y="730" type="line"/>
      <point x="106" y="730" type="line"/>
      <point x="106" y="204" type="line"/>
      <point x="314" y="401" type="line"/>
      <point x="372" y="401" type="line"/>
      <point x="186" y="228" type="line"/>
    </contour>
  </outline>
</glyph>
<glyph name="l" format="1">
  <advance width="171"/>
  <unicode hex="006C"/>
  <outline>
    <contour>
      <point x="106" y="0" type="line"/>
      <point x="65" y="0" type="line"/>
      <point x="65" y="730" type="line"/>
      <point x="106" y="730" type="line"/>
    </contour>
  </outline>
</glyph>
<glyph name="m" format="1">
  <advance width="698"/>
  <unicode hex="006D"/>
  <outline>
    <contour>
      <point x="640" y="0" type="line"/>
      <point x="599" y="0" type="line"/>
      <point x="599" y="265" type="line" smooth="yes"/>
      <point x="599" y="329"/>
      <point x="567" y="377"/>
      <point x="508" y="377" type="curve" smooth="yes"/>
      <point x="433" y="377"/>
      <point x="373" y="314"/>
      <point x="373" y="247" type="curve" smooth="yes"/>
      <point x="373" y="0" type="line"/>
      <point x="332" y="0" type="line"/>
      <point x="332" y="265" type="line" smooth="yes"/>
      <point x="332" y="329"/>
      <point x="308" y="377"/>
      <point x="241" y="377" type="curve" smooth="yes"/>
      <point x="166" y="377"/>
      <point x="106" y="313"/>
      <point x="106" y="246" type="curve" smooth="yes"/>
      <point x="106" y="0" type="line"/>
      <point x="65" y="0" type="line"/>
      <point x="65" y="401" type="line"/>
      <point x="106" y="401" type="line"/>
      <point x="106" y="335" type="line"/>
      <point x="130" y="381"/>
      <point x="182" y="413"/>
      <point x="241" y="413" type="curve" smooth="yes"/>
      <point x="310" y="413"/>
      <point x="349" y="380"/>
      <point x="364" y="332" type="curve"/>
      <point x="392" y="378"/>
      <point x="448" y="413"/>
      <point x="508" y="413" type="curve" smooth="yes"/>
      <point x="596" y="413"/>
      <point x="640" y="351"/>
      <point x="640" y="271" type="curve" smooth="yes"/>
    </contour>
  </outline>
</glyph>
<glyph name="n" format="1">
  <advance width="448"/>
  <unicode hex="006E"/>
  <outline>
    <contour>
      <point x="390" y="0" type="line"/>
      <point x="349" y="0" type="line"/>
      <point x="349" y="265" type="line" smooth="yes"/>
      <point x="349" y="329"/>
      <point x="309" y="377"/>
      <point x="239" y="377" type="curve" smooth="yes"/>
      <point x="160" y="377"/>
      <point x="106" y="307"/>
      <point x="106" y="246" type="curve" smooth="yes"/>
      <point x="106" y="0" type="line"/>
      <point x="65" y="0" type="line"/>
      <point x="65" y="401" type="line"/>
      <point x="106" y="401" type="line"/>
      <point x="106" y="335" type="line"/>
      <point x="131" y="382"/>
      <point x="182" y="413"/>
      <point x="241" y="413" type="curve" smooth="yes"/>
      <point x="335" y="413"/>
      <point x="390" y="351"/>
      <point x="390" y="271" type="curve" smooth="yes"/>
    </contour>
  </outline>
</glyph>
<glyph name="o" format="1">
  <advance width="490"/>
  <unicode hex="006F"/>
  <outline>
    <contour>
      <point x="457" y="201" type="curve" smooth="yes"/>
      <point x="457" y="76"/>
      <point x="362" y="-12"/>
      <point x="245" y="-12" type="curve" smooth="yes"/>
      <point x="128" y="-12"/>
      <point x="33" y="76"/>
      <point x="33" y="201" type="curve" smooth="yes"/>
      <point x="33" y="326"/>
      <point x="128" y="413"/>
      <point x="245" y="413" type="curve" smooth="yes"/>
      <point x="362" y="413"/>
      <point x="457" y="326"/>
    </contour>
    <contour>
      <point x="414" y="201" type="curve" smooth="yes"/>
      <point x="414" y="302"/>
      <point x="342" y="375"/>
      <point x="245" y="375" type="curve" smooth="yes"/>
      <point x="148" y="375"/>
      <point x="76" y="302"/>
      <point x="76" y="201" type="curve" smooth="yes"/>
      <point x="76" y="100"/>
      <point x="148" y="26"/>
      <point x="245" y="26" type="curve" smooth="yes"/>
      <point x="342" y="26"/>
      <point x="414" y="100"/>
    </contour>
  </outline>
</glyph>
<glyph name="p" format="1">
  <advance width="486"/>
  <unicode hex="0070"/>
  <outline>
    <contour>
      <point x="453" y="203" type="curve" smooth="yes"/>
      <point x="453" y="68"/>
      <point x="363" y="-12"/>
      <point x="256" y="-12" type="curve" smooth="yes"/>
      <point x="186" y="-12"/>
      <point x="128" y="34"/>
      <point x="106" y="83" type="curve"/>
      <point x="106" y="-179" type="line"/>
      <point x="65" y="-179" type="line"/>
      <point x="65" y="401" type="line"/>
      <point x="106" y="401" type="line"/>
      <point x="106" y="318" type="line"/>
      <point x="128" y="367"/>
      <point x="193" y="413"/>
      <point x="265" y="413" type="curve" smooth="yes"/>
      <point x="382" y="413"/>
      <point x="453" y="314"/>
    </contour>
    <contour>
      <point x="410" y="200" type="curve" smooth="yes"/>
      <point x="410" y="293"/>
      <point x="360" y="375"/>
      <point x="262" y="375" type="curve" smooth="yes"/>
      <point x="172" y="375"/>
      <point x="106" y="298"/>
      <point x="106" y="199" type="curve" smooth="yes"/>
      <point x="106" y="111"/>
      <point x="168" y="26"/>
      <point x="260" y="26" type="curve" smooth="yes"/>
      <point x="350" y="26"/>
      <point x="410" y="93"/>
    </contour>
  </outline>
</glyph>
<glyph name="q" format="1">
  <advance width="486"/>
  <unicode hex="0071"/>
  <outline>
    <contour>
      <point x="421" y="-179" type="line"/>
      <point x="380" y="-179" type="line"/>
      <point x="380" y="83" type="line"/>
      <point x="358" y="34"/>
      <point x="299" y="-12"/>
      <point x="227" y="-12" type="curve" smooth="yes"/>
      <point x="113" y="-12"/>
      <point x="33" y="66"/>
      <point x="33" y="201" type="curve" smooth="yes"/>
      <point x="33" y="312"/>
      <point x="107" y="413"/>
      <point x="228" y="413" type="curve" smooth="yes"/>
      <point x="300" y="413"/>
      <point x="358" y="367"/>
      <point x="380" y="318" type="curve"/>
      <point x="380" y="401" type="line"/>
      <point x="421" y="401" type="line"/>
    </contour>
    <contour>
      <point x="380" y="199" type="curve" smooth="yes"/>
      <point x="380" y="298"/>
      <point x="315" y="375"/>
      <point x="225" y="375" type="curve" smooth="yes"/>
      <point x="128" y="375"/>
      <point x="76" y="291"/>
      <point x="76" y="202" type="curve" smooth="yes"/>
      <point x="76" y="95"/>
      <point x="130" y="26"/>
      <point x="230" y="26" type="curve" smooth="yes"/>
      <point x="317" y="26"/>
      <point x="380" y="111"/>
    </contour>
  </outline>
</glyph>
<glyph name="r" format="1">
  <advance width="301"/>
  <unicode hex="0072"/>
  <outline>
    <contour>
      <point x="290" y="383" type="curve"/>
      <point x="266" y="352" type="line"/>
      <point x="249" y="368"/>
      <point x="232" y="377"/>
      <point x="207" y="377" type="curve" smooth="yes"/>
      <point x="154" y="377"/>
      <point x="106" y="306"/>
      <point x="106" y="244" type="curve" smooth="yes"/>
      <point x="106" y="0" type="line"/>
      <point x="65" y="0" type="line"/>
      <point x="65" y="401" type="line"/>
      <point x="106" y="401" type="line"/>
      <point x="106" y="341" type="line"/>
      <point x="124" y="380"/>
      <point x="162" y="413"/>
      <point x="211" y="413" type="curve" smooth="yes"/>
      <point x="243" y="413"/>
      <point x="266" y="406"/>
    </contour>
  </outline>
</glyph>
<glyph name="s" format="1">
  <advance width="358"/>
  <unicode hex="0073"/>
  <outline>
    <contour>
      <point x="319" y="104" type="curve" smooth="yes"/>
      <point x="319" y="35"/>
      <point x="247" y="-12"/>
      <point x="179" y="-12" type="curve" smooth="yes"/>
      <point x="128" y="-12"/>
      <point x="72" y="7"/>
      <point x="40" y="33" type="curve"/>
      <point x="65" y="65" type="line"/>
      <point x="94" y="42"/>
      <point x="138" y="26"/>
      <point x="179" y="26" type="curve" smooth="yes"/>
      <point x="228" y="26"/>
      <point x="276" y="59"/>
      <point x="276" y="104" type="curve" smooth="yes"/>
      <point x="276" y="161"/>
      <point x="224" y="176"/>
      <point x="163" y="193" type="curve" smooth="yes"/>
      <point x="104" y="209"/>
      <point x="46" y="237"/>
      <point x="46" y="308" type="curve" smooth="yes"/>
      <point x="46" y="377"/>
      <point x="115" y="413"/>
      <point x="175" y="413" type="curve" smooth="yes"/>
      <point x="224" y="413"/>
      <point x="265" y="400"/>
      <point x="305" y="369" type="curve"/>
      <point x="281" y="339" type="line"/>
      <point x="248" y="364"/>
      <point x="215" y="376"/>
      <point x="173" y="376" type="curve" smooth="yes"/>
      <point x="132" y="376"/>
      <point x="88" y="353"/>
      <point x="88" y="310" type="curve" smooth="yes"/>
      <point x="88" y="264"/>
      <point x="125" y="247"/>
      <point x="185" y="230" type="curve" smooth="yes"/>
      <point x="250" y="212"/>
      <point x="319" y="190"/>
    </contour>
  </outline>
</glyph>
<glyph name="t" format="1">
  <advance width="226"/>
  <unicode hex="0074"/>
  <outline>
    <contour>
      <point x="192" y="0" type="line"/>
      <point x="163" y="0" type="line" smooth="yes"/>
      <point x="108" y="0"/>
      <point x="73" y="36"/>
      <point x="73" y="85" type="curve" smooth="yes"/>
      <point x="73" y="365" type="line"/>
      <point x="10" y="365" type="line"/>
      <point x="10" y="401" type="line"/>
      <point x="73" y="401" type="line"/>
      <point x="73" y="589" type="line"/>
      <point x="114" y="589" type="line"/>
      <point x="114" y="401" type="line"/>
      <point x="191" y="401" type="line"/>
      <point x="191" y="365" type="line"/>
      <point x="114" y="365" type="line"/>
      <point x="114" y="84" type="line" smooth="yes"/>
      <point x="114" y="61"/>
      <point x="131" y="36"/>
      <point x="167" y="36" type="curve" smooth="yes"/>
      <point x="192" y="36" type="line"/>
    </contour>
  </outline>
</glyph>
<glyph name="u" format="1">
  <advance width="448"/>
  <unicode hex="0075"/>
  <outline>
    <contour>
      <point x="383" y="0" type="line"/>
      <point x="342" y="0" type="line"/>
      <point x="342" y="66" type="line"/>
      <point x="317" y="19"/>
      <point x="266" y="-12"/>
      <point x="207" y="-12" type="curve" smooth="yes"/>
      <point x="113" y="-12"/>
      <point x="58" y="50"/>
      <point x="58" y="130" type="curve" smooth="yes"/>
      <point x="58" y="401" type="line"/>
      <point x="99" y="401" type="line"/>
      <point x="99" y="136" type="line" smooth="yes"/>
      <point x="99" y="72"/>
      <point x="139" y="24"/>
      <point x="209" y="24" type="curve" smooth="yes"/>
      <point x="288" y="24"/>
      <point x="342" y="94"/>
      <point x="342" y="155" type="curve" smooth="yes"/>
      <point x="342" y="401" type="line"/>
      <point x="383" y="401" type="line"/>
    </contour>
  </outline>
</glyph>
<glyph name="v" format="1">
  <advance width="403"/>
  <unicode hex="0076"/>
  <outline>
    <contour>
      <point x="386" y="401" type="line"/>
      <point x="202" y="-23" type="line"/>
      <point x="17" y="401" type="line"/>
      <point x="61" y="401" type="line"/>
      <point x="202" y="72" type="line"/>
      <point x="345" y="401" type="line"/>
    </contour>
  </outline>
</glyph>
<glyph name="w" format="1">
  <advance width="627"/>
  <unicode hex="0077"/>
  <outline>
    <contour>
      <point x="610" y="401" type="line"/>
      <point x="443" y="-23" type="line"/>
      <point x="315" y="296" type="line"/>
      <point x="188" y="-23" type="line"/>
      <point x="17" y="401" type="line"/>
      <point x="61" y="401" type="line"/>
      <point x="189" y="83" type="line"/>
      <point x="315" y="401" type="line"/>
      <point x="444" y="86" type="line"/>
      <point x="567" y="401" type="line"/>
    </contour>
  </outline>
</glyph>
<glyph name="x" format="1">
  <advance width="405"/>
  <unicode hex="0078"/>
  <outline>
    <contour>
      <point x="385" y="0" type="line"/>
      <point x="335" y="0" type="line"/>
      <point x="202" y="185" type="line"/>
      <point x="67" y="0" type="line"/>
      <point x="20" y="0" type="line"/>
      <point x="178" y="218" type="line"/>
      <point x="44" y="401" type="line"/>
      <point x="92" y="401" type="line"/>
      <point x="202" y="250" type="line"/>
      <point x="311" y="401" type="line"/>
      <point x="359" y="401" type="line"/>
      <point x="227" y="219" type="line"/>
    </contour>
  </outline>
</glyph>
<glyph name="y" format="1">
  <advance width="396"/>
  <unicode hex="0079"/>
  <outline>
    <contour>
      <point x="379" y="401" type="line"/>
      <point x="179" y="-107" type="line" smooth="yes"/>
      <point x="160" y="-155"/>
      <point x="127" y="-189"/>
      <point x="81" y="-189" type="curve" smooth="yes"/>
      <point x="56" y="-189"/>
      <point x="38" y="-185"/>
      <point x="22" y="-177" type="curve"/>
      <point x="22" y="-137" type="line"/>
      <point x="38" y="-147"/>
      <point x="52" y="-152"/>
      <point x="71" y="-152" type="curve" smooth="yes"/>
      <point x="110" y="-152"/>
      <point x="132" y="-121"/>
      <point x="146" y="-85" type="curve" smooth="yes"/>
      <point x="181" y="2" type="line"/>
      <point x="17" y="401" type="line"/>
      <point x="61" y="401" type="line"/>
      <point x="204" y="56" type="line"/>
      <point x="338" y="401" type="line"/>
    </contour>
  </outline>
</glyph>
<glyph name="z" format="1">
  <advance width="418"/>
  <unicode hex="007A"/>
  <outline>
    <contour>
      <point x="390" y="401" type="line"/>
      <point x="99" y="38" type="line"/>
      <point x="372" y="38" type="line"/>
      <point x="372" y="0" type="line"/>
      <point x="21" y="0" type="line"/>
      <point x="311" y="363" type="line"/>
      <point x="59" y="363" type="line"/>
      <point x="59" y="401" type="line"/>
    </contour>
  </outline>
</glyph>
<glyph name="braceleft" format="1">
  <advance width="260"/>
  <unicode hex="007B"/>
  <outline>
    <contour>
      <point x="241" y="-179" type="line"/>
      <point x="114" y="-118"/>
      <point x="95" y="-59"/>
      <point x="95" y="88" type="curve" smooth="yes"/>
      <point x="95" y="172"/>
      <point x="89" y="262"/>
      <point x="25" y="262" type="curve"/>
      <point x="25" y="308" type="line"/>
      <point x="89" y="308"/>
      <point x="95" y="398"/>
      <point x="95" y="482" type="curve" smooth="yes"/>
      <point x="95" y="629"/>
      <point x="114" y="688"/>
      <point x="241" y="749" type="curve"/>
      <point x="241" y="711" type="line"/>
      <point x="161" y="655"/>
      <point x="140" y="624"/>
      <point x="140" y="496" type="curve" smooth="yes"/>
      <point x="140" y="393"/>
      <point x="137" y="319"/>
      <point x="68" y="285" type="curve"/>
      <point x="137" y="251"/>
      <point x="140" y="177"/>
      <point x="140" y="74" type="curve" smooth="yes"/>
      <point x="140" y="-54"/>
      <point x="161" y="-85"/>
      <point x="241" y="-141" type="curve"/>
    </contour>
  </outline>
</glyph>
<glyph name="bar" format="1">
  <advance width="203"/>
  <unicode hex="007C"/>
  <outline>
    <contour>
      <point x="123" y="-179" type="line"/>
      <point x="80" y="-179" type="line"/>
      <point x="80" y="730" type="line"/>
      <point x="123" y="730" type="line"/>
    </contour>
  </outline>
</glyph>
<glyph name="braceright" format="1">
  <advance width="260"/>
  <unicode hex="007D"/>
  <outline>
    <contour>
      <point x="235" y="262" type="line"/>
      <point x="171" y="262"/>
      <point x="165" y="172"/>
      <point x="165" y="88" type="curve" smooth="yes"/>
      <point x="165" y="-59"/>
      <point x="146" y="-118"/>
      <point x="19" y="-179" type="curve"/>
      <point x="19" y="-141" type="line"/>
      <point x="99" y="-85"/>
      <point x="120" y="-54"/>
      <point x="120" y="74" type="curve" smooth="yes"/>
      <point x="120" y="177"/>
      <point x="123" y="251"/>
      <point x="192" y="285" type="curve"/>
      <point x="123" y="319"/>
      <point x="120" y="393"/>
      <point x="120" y="496" type="curve" smooth="yes"/>
      <point x="120" y="624"/>
      <point x="99" y="655"/>
      <point x="19" y="711" type="curve"/>
      <point x="19" y="749" type="line"/>
      <point x="146" y="688"/>
      <point x="165" y="629"/>
      <point x="165" y="482" type="curve" smooth="yes"/>
      <point x="165" y="398"/>
      <point x="171" y="308"/>
      <point x="235" y="308" type="curve"/>
    </contour>
  </outline>
</glyph>
<glyph name="asciitilde" format="1">
  <advance width="440"/>
  <unicode hex="007E"/>
  <outline>
    <contour>
      <point x="390" y="427" type="line"/>
      <point x="387" y="381"/>
      <point x="369" y="308"/>
      <point x="297" y="308" type="curve" smooth="yes"/>
      <point x="269" y="308"/>
      <point x="238" y="330"/>
      <point x="210" y="352" type="curve" smooth="yes"/>
      <point x="185" y="371"/>
      <point x="162" y="389"/>
      <point x="144" y="389" type="curve" smooth="yes"/>
      <point x="117" y="389"/>
      <point x="95" y="365"/>
      <point x="93" y="310" type="curve"/>
      <point x="50" y="310" type="line"/>
      <point x="53" y="356"/>
      <point x="73" y="429"/>
      <point x="143" y="429" type="curve" smooth="yes"/>
      <point x="170" y="429"/>
      <point x="201" y="407"/>
      <point x="228" y="387" type="curve" smooth="yes"/>
      <point x="255" y="367"/>
      <point x="279" y="348"/>
      <point x="296" y="348" type="curve" smooth="yes"/>
      <point x="323" y="348"/>
      <point x="345" y="374"/>
      <point x="347" y="427" type="curve"/>
    </contour>
  </outline>
</glyph>
<glyph name="exclamdown" format="1">
  <advance width="189"/>
  <unicode hex="00A1"/>
  <outline>
    <contour>
      <point x="117" y="646" type="line"/>
      <point x="72" y="646" type="line"/>
      <point x="72" y="730" type="line"/>
      <point x="117" y="730" type="line"/>
    </contour>
    <contour>
      <point x="117" y="0" type="line"/>
      <point x="72" y="0" type="line"/>
      <point x="72" y="430" type="line"/>
      <point x="82" y="601" type="line"/>
      <point x="107" y="601" type="line"/>
      <point x="117" y="430" type="line"/>
    </contour>
  </outline>
</glyph>
<glyph name="cent" format="1">
  <advance width="440"/>
  <unicode hex="00A2"/>
  <outline>
    <contour>
      <point x="403" y="87" type="line"/>
      <point x="370" y="36"/>
      <point x="320" y="-4"/>
      <point x="253" y="-11" type="curve"/>
      <point x="253" y="-79" type="line"/>
      <point x="213" y="-79" type="line"/>
      <point x="213" y="-11" type="line"/>
      <point x="109" y="-1"/>
      <point x="33" y="89"/>
      <point x="33" y="202" type="curve" smooth="yes"/>
      <point x="33" y="314"/>
      <point x="111" y="404"/>
      <point x="213" y="412" type="curve"/>
      <point x="213" y="495" type="line"/>
      <point x="253" y="495" type="line"/>
      <point x="253" y="412" type="line"/>
      <point x="325" y="405"/>
      <point x="369" y="369"/>
      <point x="396" y="336" type="curve"/>
      <point x="363" y="310" type="line"/>
      <point x="335" y="346"/>
      <point x="299" y="369"/>
      <point x="253" y="374" type="curve"/>
      <point x="253" y="28" type="line"/>
      <point x="304" y="34"/>
      <point x="341" y="64"/>
      <point x="371" y="108" type="curve"/>
    </contour>
    <contour>
      <point x="213" y="27" type="curve"/>
      <point x="213" y="374" type="line"/>
      <point x="131" y="363"/>
      <point x="76" y="290"/>
      <point x="76" y="204" type="curve" smooth="yes"/>
      <point x="76" y="113"/>
      <point x="133" y="36"/>
    </contour>
  </outline>
</glyph>
<glyph name="sterling" format="1">
  <advance width="524"/>
  <unicode hex="00A3"/>
  <outline>
    <contour>
      <point x="491" y="137" type="line"/>
      <point x="489" y="39"/>
      <point x="454" y="-12"/>
      <point x="378" y="-12" type="curve" smooth="yes"/>
      <point x="326" y="-12"/>
      <point x="288" y="21"/>
      <point x="249" y="50" type="curve"/>
      <point x="221" y="9"/>
      <point x="178" y="-12"/>
      <point x="130" y="-12" type="curve" smooth="yes"/>
      <point x="91" y="-12"/>
      <point x="47" y="16"/>
      <point x="47" y="55" type="curve" smooth="yes"/>
      <point x="47" y="99"/>
      <point x="77" y="132"/>
      <point x="144" y="132" type="curve" smooth="yes"/>
      <point x="178" y="132"/>
      <point x="206" y="121"/>
      <point x="231" y="107" type="curve"/>
      <point x="237" y="124"/>
      <point x="240" y="142"/>
      <point x="240" y="160" type="curve" smooth="yes"/>
      <point x="240" y="179"/>
      <point x="238" y="197"/>
      <point x="234" y="214" type="curve"/>
      <point x="84" y="214" type="line"/>
      <point x="84" y="250" type="line"/>
      <point x="224" y="250" type="line"/>
      <point x="218" y="267"/>
      <point x="210" y="283"/>
      <point x="201" y="298" type="curve"/>
      <point x="84" y="298" type="line"/>
      <point x="84" y="334" type="line"/>
      <point x="178" y="334" type="line"/>
      <point x="130" y="400"/>
      <point x="73" y="456"/>
      <point x="73" y="549" type="curve" smooth="yes"/>
      <point x="73" y="671"/>
      <point x="156" y="742"/>
      <point x="272" y="742" type="curve" smooth="yes"/>
      <point x="396" y="742"/>
      <point x="461" y="645"/>
      <point x="469" y="571" type="curve"/>
      <point x="422" y="571" type="line"/>
      <point x="405" y="655"/>
      <point x="347" y="700"/>
      <point x="269" y="700" type="curve" smooth="yes"/>
      <point x="175" y="700"/>
      <point x="120" y="642"/>
      <point x="120" y="553" type="curve" smooth="yes"/>
      <point x="120" y="459"/>
      <point x="185" y="406"/>
      <point x="232" y="334" type="curve"/>
      <point x="376" y="334" type="line"/>
      <point x="376" y="298" type="line"/>
      <point x="253" y="298" type="line"/>
      <point x="261" y="283"/>
      <point x="267" y="267"/>
      <point x="272" y="250" type="curve"/>
      <point x="376" y="250" type="line"/>
      <point x="376" y="214" type="line"/>
      <point x="279" y="214" type="line"/>
      <point x="281" y="202"/>
      <point x="282" y="189"/>
      <point x="282" y="175" type="curve" smooth="yes"/>
      <point x="282" y="140"/>
      <point x="277" y="109"/>
      <point x="267" y="84" type="curve"/>
      <point x="305" y="56"/>
      <point x="339" y="28"/>
      <point x="381" y="28" type="curve" smooth="yes"/>
      <point x="435" y="28"/>
      <point x="448" y="79"/>
      <point x="449" y="137" type="curve"/>
    </contour>
    <contour>
      <point x="215" y="73" type="curve"/>
      <point x="193" y="87"/>
      <point x="169" y="96"/>
      <point x="141" y="96" type="curve" smooth="yes"/>
      <point x="108" y="96"/>
      <point x="89" y="81"/>
      <point x="89" y="59" type="curve" smooth="yes"/>
      <point x="89" y="37"/>
      <point x="108" y="24"/>
      <point x="136" y="24" type="curve" smooth="yes"/>
      <point x="169" y="24"/>
      <point x="197" y="44"/>
    </contour>
  </outline>
</glyph>
<glyph name="yen" format="1">
  <advance width="628"/>
  <unicode hex="00A5"/>
  <outline>
    <contour>
      <point x="600" y="730" type="line"/>
      <point x="335" y="348" type="line"/>
      <point x="335" y="270" type="line"/>
      <point x="518" y="270" type="line"/>
      <point x="518" y="233" type="line"/>
      <point x="335" y="233" type="line"/>
      <point x="335" y="154" type="line"/>
      <point x="518" y="154" type="line"/>
      <point x="518" y="117" type="line"/>
      <point x="335" y="117" type="line"/>
      <point x="335" y="0" type="line"/>
      <point x="290" y="0" type="line"/>
      <point x="290" y="117" type="line"/>
      <point x="90" y="117" type="line"/>
      <point x="90" y="154" type="line"/>
      <point x="290" y="154" type="line"/>
      <point x="290" y="233" type="line"/>
      <point x="90" y="233" type="line"/>
      <point x="90" y="270" type="line"/>
      <point x="290" y="270" type="line"/>
      <point x="290" y="349" type="line"/>
      <point x="28" y="730" type="line"/>
      <point x="80" y="730" type="line"/>
      <point x="315" y="390" type="line"/>
      <point x="549" y="730" type="line"/>
    </contour>
  </outline>
</glyph>
<glyph name="brokenbar" format="1">
  <advance width="203"/>
  <unicode hex="00A6"/>
  <outline>
    <contour>
      <point x="80" y="351" type="line"/>
      <point x="80" y="730" type="line"/>
      <point x="123" y="730" type="line"/>
      <point x="123" y="351" type="line"/>
    </contour>
    <contour>
      <point x="123" y="200" type="line"/>
      <point x="123" y="-179" type="line"/>
      <point x="80" y="-179" type="line"/>
      <point x="80" y="200" type="line"/>
    </contour>
  </outline>
</glyph>
<glyph name="section" format="1">
  <advance width="629"/>
  <unicode hex="00A7"/>
  <outline>
    <contour>
      <point x="594" y="235" type="curve" smooth="yes"/>
      <point x="594" y="154"/>
      <point x="540" y="82"/>
      <point x="469" y="51" type="curve"/>
      <point x="498" y="29"/>
      <point x="517" y="0"/>
      <point x="517" y="-37" type="curve" smooth="yes"/>
      <point x="517" y="-125"/>
      <point x="439" y="-191"/>
      <point x="312" y="-191" type="curve" smooth="yes"/>
      <point x="228" y="-191"/>
      <point x="142" y="-150"/>
      <point x="109" y="-114" type="curve"/>
      <point x="139" y="-82" type="line"/>
      <point x="173" y="-122"/>
      <point x="255" y="-149"/>
      <point x="314" y="-149" type="curve" smooth="yes"/>
      <point x="424" y="-149"/>
      <point x="470" y="-96"/>
      <point x="470" y="-43" type="curve" smooth="yes"/>
      <point x="470" y="24"/>
      <point x="398" y="44"/>
      <point x="271" y="90" type="curve" smooth="yes"/>
      <point x="155" y="132"/>
      <point x="30" y="184"/>
      <point x="30" y="316" type="curve" smooth="yes"/>
      <point x="30" y="397"/>
      <point x="84" y="469"/>
      <point x="155" y="500" type="curve"/>
      <point x="126" y="522"/>
      <point x="107" y="551"/>
      <point x="107" y="588" type="curve" smooth="yes"/>
      <point x="107" y="676"/>
      <point x="185" y="742"/>
      <point x="312" y="742" type="curve" smooth="yes"/>
      <point x="396" y="742"/>
      <point x="482" y="701"/>
      <point x="515" y="665" type="curve"/>
      <point x="485" y="633" type="line"/>
      <point x="451" y="673"/>
      <point x="369" y="700"/>
      <point x="310" y="700" type="curve" smooth="yes"/>
      <point x="200" y="700"/>
      <point x="154" y="647"/>
      <point x="154" y="594" type="curve" smooth="yes"/>
      <point x="154" y="527"/>
      <point x="226" y="507"/>
      <point x="353" y="461" type="curve" smooth="yes"/>
      <point x="469" y="419"/>
      <point x="594" y="367"/>
    </contour>
    <contour>
      <point x="547" y="229" type="curve" smooth="yes"/>
      <point x="547" y="342"/>
      <point x="456" y="378"/>
      <point x="321" y="426" type="curve" smooth="yes"/>
      <point x="276" y="442"/>
      <point x="231" y="457"/>
      <point x="194" y="476" type="curve"/>
      <point x="125" y="449"/>
      <point x="77" y="389"/>
      <point x="77" y="322" type="curve" smooth="yes"/>
      <point x="77" y="209"/>
      <point x="168" y="173"/>
      <point x="303" y="125" type="curve" smooth="yes"/>
      <point x="348" y="109"/>
      <point x="393" y="94"/>
      <point x="430" y="75" type="curve"/>
      <point x="499" y="102"/>
      <point x="547" y="162"/>
    </contour>
  </outline>
</glyph>
<glyph name="dieresis" format="1">
  <advance width="440"/>
  <unicode hex="00A8"/>
  <outline>
    <contour>
      <point x="321" y="484" type="line"/>
      <point x="275" y="484" type="line"/>
      <point x="275" y="568" type="line"/>
      <point x="321" y="568" type="line"/>
    </contour>
    <contour>
      <point x="165" y="484" type="line"/>
      <point x="119" y="484" type="line"/>
      <point x="119" y="568" type="line"/>
      <point x="165" y="568" type="line"/>
    </contour>
  </outline>
</glyph>
<glyph name="copyright" format="1">
  <advance width="844"/>
  <unicode hex="00A9"/>
  <outline>
    <contour>
      <point x="799" y="365" type="curve" smooth="yes"/>
      <point x="799" y="157"/>
      <point x="630" y="-12"/>
      <point x="422" y="-12" type="curve" smooth="yes"/>
      <point x="214" y="-12"/>
      <point x="45" y="157"/>
      <point x="45" y="365" type="curve" smooth="yes"/>
      <point x="45" y="573"/>
      <point x="214" y="742"/>
      <point x="422" y="742" type="curve" smooth="yes"/>
      <point x="630" y="742"/>
      <point x="799" y="573"/>
    </contour>
    <contour>
      <point x="765" y="364" type="curve" smooth="yes"/>
      <point x="765" y="553"/>
      <point x="613" y="709"/>
      <point x="422" y="709" type="curve" smooth="yes"/>
      <point x="231" y="709"/>
      <point x="79" y="553"/>
      <point x="79" y="364" type="curve" smooth="yes"/>
      <point x="79" y="175"/>
      <point x="231" y="21"/>
      <point x="422" y="21" type="curve" smooth="yes"/>
      <point x="613" y="21"/>
      <point x="765" y="175"/>
    </contour>
    <contour>
      <point x="586" y="217" type="line"/>
      <point x="556" y="182"/>
      <point x="499" y="141"/>
      <point x="422" y="141" type="curve" smooth="yes"/>
      <point x="302" y="141"/>
      <point x="209" y="238"/>
      <point x="209" y="367" type="curve" smooth="yes"/>
      <point x="209" y="489"/>
      <point x="296" y="593"/>
      <point x="418" y="593" type="curve" smooth="yes"/>
      <point x="483" y="593"/>
      <point x="543" y="567"/>
      <point x="577" y="525" type="curve"/>
      <point x="549" y="499" type="line"/>
      <point x="518" y="534"/>
      <point x="476" y="554"/>
      <point x="424" y="554" type="curve" smooth="yes"/>
      <point x="320" y="554"/>
      <point x="251" y="471"/>
      <point x="251" y="369" type="curve" smooth="yes"/>
      <point x="251" y="264"/>
      <point x="323" y="180"/>
      <point x="421" y="180" type="curve" smooth="yes"/>
      <point x="484" y="180"/>
      <point x="522" y="203"/>
      <point x="558" y="242" type="curve"/>
    </contour>
  </outline>
</glyph>
<glyph name="ordfeminine" format="1">
  <advance width="421"/>
  <unicode hex="00AA"/>
  <outline>
    <contour>
      <point x="338" y="401" type="line"/>
      <point x="300" y="401" type="line"/>
      <point x="300" y="437" type="line"/>
      <point x="272" y="412"/>
      <point x="234" y="391"/>
      <point x="182" y="391" type="curve" smooth="yes"/>
      <point x="117" y="391"/>
      <point x="63" y="428"/>
      <point x="63" y="495" type="curve" smooth="yes"/>
      <point x="63" y="573"/>
      <point x="127" y="611"/>
      <point x="236" y="611" type="curve" smooth="yes"/>
      <point x="300" y="611" type="line"/>
      <point x="300" y="638" type="line" smooth="yes"/>
      <point x="300" y="695"/>
      <point x="256" y="707"/>
      <point x="210" y="707" type="curve" smooth="yes"/>
      <point x="170" y="707"/>
      <point x="138" y="699"/>
      <point x="111" y="683" type="curve"/>
      <point x="96" y="715" type="line"/>
      <point x="127" y="732"/>
      <point x="165" y="742"/>
      <point x="210" y="742" type="curve" smooth="yes"/>
      <point x="299" y="742"/>
      <point x="338" y="702"/>
      <point x="338" y="641" type="curve" smooth="yes"/>
    </contour>
    <contour>
      <point x="347" y="302" type="line"/>
      <point x="63" y="302" type="line"/>
      <point x="63" y="336" type="line"/>
      <point x="347" y="336" type="line"/>
    </contour>
    <contour>
      <point x="300" y="476" type="curve"/>
      <point x="300" y="577" type="line"/>
      <point x="240" y="577" type="line" smooth="yes"/>
      <point x="149" y="577"/>
      <point x="103" y="553"/>
      <point x="103" y="495" type="curve" smooth="yes"/>
      <point x="103" y="452"/>
      <point x="136" y="427"/>
      <point x="182" y="427" type="curve" smooth="yes"/>
      <point x="231" y="427"/>
      <point x="271" y="451"/>
    </contour>
  </outline>
</glyph>
<glyph name="guillemotleft" format="1">
  <advance width="310"/>
  <unicode hex="00AB"/>
  <outline>
    <contour>
      <point x="281" y="115" type="line"/>
      <point x="230" y="115" type="line"/>
      <point x="128" y="218" type="line"/>
      <point x="230" y="321" type="line"/>
      <point x="281" y="321" type="line"/>
      <point x="183" y="218" type="line"/>
    </contour>
    <contour>
      <point x="173" y="115" type="line"/>
      <point x="122" y="115" type="line"/>
      <point x="20" y="218" type="line"/>
      <point x="122" y="321" type="line"/>
      <point x="173" y="321" type="line"/>
      <point x="75" y="218" type="line"/>
    </contour>
  </outline>
</glyph>
<glyph name="degree" format="1">
  <advance width="374"/>
  <unicode hex="00B0"/>
  <outline>
    <contour>
      <point x="344" y="585" type="curve" smooth="yes"/>
      <point x="344" y="498"/>
      <point x="274" y="428"/>
      <point x="187" y="428" type="curve" smooth="yes"/>
      <point x="100" y="428"/>
      <point x="30" y="498"/>
      <point x="30" y="585" type="curve" smooth="yes"/>
      <point x="30" y="672"/>
      <point x="100" y="742"/>
      <point x="187" y="742" type="curve" smooth="yes"/>
      <point x="274" y="742"/>
      <point x="344" y="672"/>
    </contour>
    <contour>
      <point x="305" y="585" type="curve" smooth="yes"/>
      <point x="305" y="651"/>
      <point x="253" y="703"/>
      <point x="187" y="703" type="curve" smooth="yes"/>
      <point x="121" y="703"/>
      <point x="69" y="651"/>
      <point x="69" y="585" type="curve" smooth="yes"/>
      <point x="69" y="519"/>
      <point x="121" y="467"/>
      <point x="187" y="467" type="curve" smooth="yes"/>
      <point x="253" y="467"/>
      <point x="305" y="519"/>
    </contour>
  </outline>
</glyph>
<glyph name="twosuperior" format="1">
  <advance width="421"/>
  <unicode hex="00B2"/>
  <outline>
    <contour>
      <point x="129" y="628" type="curve"/>
      <point x="86" y="628" type="line"/>
      <point x="95" y="697"/>
      <point x="146" y="740"/>
      <point x="206" y="740" type="curve" smooth="yes"/>
      <point x="277" y="740"/>
      <point x="324" y="695"/>
      <point x="324" y="628" type="curve" smooth="yes"/>
      <point x="324" y="590"/>
      <point x="303" y="562"/>
      <point x="275" y="529" type="curve" smooth="yes"/>
      <point x="161" y="392" type="line"/>
      <point x="326" y="392" type="line"/>
      <point x="326" y="352" type="line"/>
      <point x="73" y="352" type="line"/>
      <point x="243" y="555" type="line" smooth="yes"/>
      <point x="264" y="580"/>
      <point x="280" y="600"/>
      <point x="280" y="630" type="curve" smooth="yes"/>
      <point x="280" y="671"/>
      <point x="251" y="700"/>
      <point x="206" y="700" type="curve" smooth="yes"/>
      <point x="165" y="700"/>
      <point x="137" y="676"/>
    </contour>
  </outline>
</glyph>
<glyph name="acute" format="1">
  <advance width="440"/>
  <unicode hex="00B4"/>
  <outline>
    <contour>
      <point x="276" y="614" type="line"/>
      <point x="194" y="484" type="line"/>
      <point x="147" y="484" type="line"/>
      <point x="229" y="614" type="line"/>
    </contour>
  </outline>
</glyph>
<glyph name="paragraph" format="1">
  <advance width="617"/>
  <unicode hex="00B6"/>
  <outline>
    <contour>
      <point x="545" y="-179" type="line"/>
      <point x="502" y="-179" type="line"/>
      <point x="502" y="692" type="line"/>
      <point x="418" y="692" type="line"/>
      <point x="418" y="-179" type="line"/>
      <point x="375" y="-179" type="line"/>
      <point x="375" y="247" type="line"/>
      <point x="276" y="247" type="line" smooth="yes"/>
      <point x="139" y="247"/>
      <point x="27" y="357"/>
      <point x="27" y="485" type="curve" smooth="yes"/>
      <point x="27" y="624"/>
      <point x="131" y="730"/>
      <point x="286" y="730" type="curve" smooth="yes"/>
      <point x="545" y="730" type="line"/>
    </contour>
    <contour>
      <point x="375" y="285" type="line"/>
      <point x="375" y="692" type="line"/>
      <point x="291" y="692" type="line" smooth="yes"/>
      <point x="159" y="692"/>
      <point x="72" y="605"/>
      <point x="72" y="491" type="curve" smooth="yes"/>
      <point x="72" y="373"/>
      <point x="161" y="285"/>
      <point x="295" y="285" type="curve" smooth="yes"/>
    </contour>
  </outline>
</glyph>
<glyph name="periodcentered" format="1">
  <advance width="165"/>
  <unicode hex="00B7"/>
  <outline>
    <contour>
      <point x="105" y="317" type="line"/>
      <point x="60" y="317" type="line"/>
      <point x="60" y="401" type="line"/>
      <point x="105" y="401" type="line"/>
    </contour>
  </outline>
</glyph>
<glyph name="cedilla" format="1">
  <advance width="440"/>
  <unicode hex="00B8"/>
  <outline>
    <contour>
      <point x="288" y="-104" type="curve" smooth="yes"/>
      <point x="288" y="-158"/>
      <point x="242" y="-179"/>
      <point x="195" y="-179" type="curve" smooth="yes"/>
      <point x="162" y="-179"/>
      <point x="123" y="-163"/>
      <point x="104" y="-147" type="curve"/>
      <point x="123" y="-122" type="line"/>
      <point x="137" y="-134"/>
      <point x="172" y="-146"/>
      <point x="196" y="-146" type="curve" smooth="yes"/>
      <point x="224" y="-146"/>
      <point x="246" y="-135"/>
      <point x="246" y="-110" type="curve" smooth="yes"/>
      <point x="246" y="-89"/>
      <point x="231" y="-74"/>
      <point x="197" y="-74" type="curve" smooth="yes"/>
      <point x="183" y="-74"/>
      <point x="166" y="-77"/>
      <point x="154" y="-82" type="curve"/>
      <point x="143" y="-65" type="line"/>
      <point x="202" y="13" type="line"/>
      <point x="245" y="13" type="line"/>
      <point x="201" y="-47" type="line"/>
      <point x="252" y="-42"/>
      <point x="288" y="-67"/>
    </contour>
  </outline>
</glyph>
<glyph name="ordmasculine" format="1">
  <advance width="476"/>
  <unicode hex="00BA"/>
  <outline>
    <contour>
      <point x="410" y="568" type="curve" smooth="yes"/>
      <point x="410" y="465"/>
      <point x="332" y="392"/>
      <point x="235" y="392" type="curve" smooth="yes"/>
      <point x="138" y="392"/>
      <point x="60" y="465"/>
      <point x="60" y="568" type="curve" smooth="yes"/>
      <point x="60" y="671"/>
      <point x="138" y="743"/>
      <point x="235" y="743" type="curve" smooth="yes"/>
      <point x="332" y="743"/>
      <point x="410" y="671"/>
    </contour>
    <contour>
      <point x="403" y="302" type="line"/>
      <point x="67" y="302" type="line"/>
      <point x="67" y="336" type="line"/>
      <point x="403" y="336" type="line"/>
    </contour>
    <contour>
      <point x="370" y="568" type="curve" smooth="yes"/>
      <point x="370" y="648"/>
      <point x="312" y="707"/>
      <point x="235" y="707" type="curve" smooth="yes"/>
      <point x="158" y="707"/>
      <point x="100" y="648"/>
      <point x="100" y="568" type="curve" smooth="yes"/>
      <point x="100" y="488"/>
      <point x="158" y="427"/>
      <point x="235" y="427" type="curve" smooth="yes"/>
      <point x="312" y="427"/>
      <point x="370" y="488"/>
    </contour>
  </outline>
</glyph>
<glyph name="guillemotright" format="1">
  <advance width="310"/>
  <unicode hex="00BB"/>
  <outline>
    <contour>
      <point x="290" y="218" type="line"/>
      <point x="188" y="115" type="line"/>
      <point x="137" y="115" type="line"/>
      <point x="235" y="218" type="line"/>
      <point x="137" y="321" type="line"/>
      <point x="188" y="321" type="line"/>
    </contour>
    <contour>
      <point x="182" y="218" type="line"/>
      <point x="80" y="115" type="line"/>
      <point x="29" y="115" type="line"/>
      <point x="127" y="218" type="line"/>
      <point x="29" y="321" type="line"/>
      <point x="80" y="321" type="line"/>
    </contour>
  </outline>
</glyph>
<glyph name="onequarter" format="1">
  <advance width="828"/>
  <unicode hex="00BC"/>
  <outline>
    <contour>
      <point x="143" y="342" type="line"/>
      <point x="143" y="659" type="line"/>
      <point x="131" y="641"/>
      <point x="105" y="629"/>
      <point x="79" y="626" type="curve"/>
      <point x="79" y="668" type="line"/>
      <point x="112" y="672"/>
      <point x="137" y="697"/>
      <point x="149" y="730" type="curve"/>
      <point x="187" y="730" type="line"/>
      <point x="187" y="342" type="line"/>
    </contour>
    <contour>
      <point x="653" y="730" type="line"/>
      <point x="154" y="0" type="line"/>
      <point x="105" y="0" type="line"/>
      <point x="604" y="730" type="line"/>
    </contour>
    <contour>
      <point x="653" y="98" type="line"/>
      <point x="653" y="0" type="line"/>
      <point x="611" y="0" type="line"/>
      <point x="611" y="98" type="line"/>
      <point x="444" y="98" type="line"/>
      <point x="444" y="127" type="line"/>
      <point x="625" y="385" type="line"/>
      <point x="653" y="385" type="line"/>
      <point x="653" y="138" type="line"/>
      <point x="712" y="138" type="line"/>
      <point x="712" y="98" type="line"/>
    </contour>
    <contour>
      <point x="611" y="295" type="line"/>
      <point x="500" y="138" type="line"/>
      <point x="611" y="138" type="line"/>
    </contour>
  </outline>
</glyph>
<glyph name="onehalf" format="1">
  <advance width="828"/>
  <unicode hex="00BD"/>
  <outline>
    <contour>
      <point x="143" y="342" type="line"/>
      <point x="143" y="659" type="line"/>
      <point x="131" y="641"/>
      <point x="105" y="629"/>
      <point x="79" y="626" type="curve"/>
      <point x="79" y="668" type="line"/>
      <point x="112" y="672"/>
      <point x="137" y="697"/>
      <point x="149" y="730" type="curve"/>
      <point x="187" y="730" type="line"/>
      <point x="187" y="342" type="line"/>
    </contour>
    <contour>
      <point x="653" y="730" type="line"/>
      <point x="154" y="0" type="line"/>
      <point x="105" y="0" type="line"/>
      <point x="604" y="730" type="line"/>
    </contour>
    <contour>
      <point x="542" y="276" type="curve"/>
      <point x="499" y="276" type="line"/>
      <point x="508" y="345"/>
      <point x="559" y="388"/>
      <point x="619" y="388" type="curve" smooth="yes"/>
      <point x="690" y="388"/>
      <point x="737" y="343"/>
      <point x="737" y="276" type="curve" smooth="yes"/>
      <point x="737" y="238"/>
      <point x="716" y="210"/>
      <point x="688" y="177" type="curve" smooth="yes"/>
      <point x="574" y="40" type="line"/>
      <point x="739" y="40" type="line"/>
      <point x="739" y="0" type="line"/>
      <point x="486" y="0" type="line"/>
      <point x="656" y="203" type="line" smooth="yes"/>
      <point x="677" y="228"/>
      <point x="693" y="248"/>
      <point x="693" y="278" type="curve" smooth="yes"/>
      <point x="693" y="319"/>
      <point x="664" y="348"/>
      <point x="619" y="348" type="curve" smooth="yes"/>
      <point x="578" y="348"/>
      <point x="550" y="324"/>
    </contour>
  </outline>
</glyph>
<glyph name="threequarters" format="1">
  <advance width="829"/>
  <unicode hex="00BE"/>
  <outline>
    <contour>
      <point x="201" y="343" type="curve" smooth="yes"/>
      <point x="144" y="343"/>
      <point x="96" y="371"/>
      <point x="64" y="414" type="curve"/>
      <point x="96" y="440" type="line"/>
      <point x="127" y="403"/>
      <point x="159" y="384"/>
      <point x="202" y="384" type="curve" smooth="yes"/>
      <point x="250" y="384"/>
      <point x="286" y="410"/>
      <point x="286" y="460" type="curve" smooth="yes"/>
      <point x="286" y="507"/>
      <point x="254" y="535"/>
      <point x="191" y="535" type="curve" smooth="yes"/>
      <point x="153" y="535" type="line"/>
      <point x="153" y="575" type="line"/>
      <point x="190" y="575" type="line" smooth="yes"/>
      <point x="240" y="575"/>
      <point x="271" y="598"/>
      <point x="271" y="639" type="curve" smooth="yes"/>
      <point x="271" y="675"/>
      <point x="241" y="699"/>
      <point x="203" y="699" type="curve" smooth="yes"/>
      <point x="166" y="699"/>
      <point x="138" y="682"/>
      <point x="117" y="652" type="curve"/>
      <point x="82" y="673" type="line"/>
      <point x="116" y="720"/>
      <point x="155" y="740"/>
      <point x="204" y="740" type="curve" smooth="yes"/>
      <point x="264" y="740"/>
      <point x="315" y="701"/>
      <point x="315" y="642" type="curve" smooth="yes"/>
      <point x="315" y="603"/>
      <point x="298" y="575"/>
      <point x="270" y="557" type="curve"/>
      <point x="306" y="540"/>
      <point x="329" y="506"/>
      <point x="329" y="463" type="curve" smooth="yes"/>
      <point x="329" y="390"/>
      <point x="280" y="343"/>
    </contour>
    <contour>
      <point x="708" y="730" type="line"/>
      <point x="209" y="0" type="line"/>
      <point x="160" y="0" type="line"/>
      <point x="659" y="730" type="line"/>
    </contour>
    <contour>
      <point x="703" y="98" type="line"/>
      <point x="703" y="0" type="line"/>
      <point x="661" y="0" type="line"/>
      <point x="661" y="98" type="line"/>
      <point x="494" y="98" type="line"/>
      <point x="494" y="127" type="line"/>
      <point x="675" y="385" type="line"/>
      <point x="703" y="385" type="line"/>
      <point x="703" y="138" type="line"/>
      <point x="762" y="138" type="line"/>
      <point x="762" y="98" type="line"/>
    </contour>
    <contour>
      <point x="661" y="295" type="line"/>
      <point x="550" y="138" type="line"/>
      <point x="661" y="138" type="line"/>
    </contour>
  </outline>
</glyph>
<glyph name="questiondown" format="1">
  <advance width="437"/>
  <unicode hex="00BF"/>
  <outline>
    <contour>
      <point x="261" y="646" type="line"/>
      <point x="216" y="646" type="line"/>
      <point x="216" y="730" type="line"/>
      <point x="261" y="730" type="line"/>
    </contour>
    <contour>
      <point x="404" y="90" type="line"/>
      <point x="368" y="21"/>
      <point x="305" y="-12"/>
      <point x="232" y="-12" type="curve" smooth="yes"/>
      <point x="125" y="-12"/>
      <point x="47" y="63"/>
      <point x="47" y="160" type="curve" smooth="yes"/>
      <point x="47" y="238"/>
      <point x="93" y="300"/>
      <point x="137" y="362" type="curve" smooth="yes"/>
      <point x="178" y="418"/>
      <point x="216" y="489"/>
      <point x="216" y="554" type="curve" smooth="yes"/>
      <point x="216" y="599" type="line"/>
      <point x="261" y="599" type="line"/>
      <point x="261" y="559" type="line" smooth="yes"/>
      <point x="261" y="471"/>
      <point x="215" y="402"/>
      <point x="171" y="337" type="curve" smooth="yes"/>
      <point x="131" y="279"/>
      <point x="94" y="226"/>
      <point x="94" y="166" type="curve" smooth="yes"/>
      <point x="94" y="90"/>
      <point x="155" y="30"/>
      <point x="232" y="30" type="curve" smooth="yes"/>
      <point x="293" y="30"/>
      <point x="342" y="60"/>
      <point x="370" y="116" type="curve"/>
    </contour>
  </outline>
</glyph>
<glyph name="Adieresis" format="1">
  <advance width="626"/>
  <unicode hex="00C4"/>
  <outline>
    <contour>
      <point x="507" y="646" type="line"/>
      <point x="461" y="646" type="line"/>
      <point x="461" y="730" type="line"/>
      <point x="507" y="730" type="line"/>
    </contour>
    <contour>
      <point x="166" y="646" type="line"/>
      <point x="120" y="646" type="line"/>
      <point x="120" y="730" type="line"/>
      <point x="166" y="730" type="line"/>
    </contour>
    <component base="A"/>
  </outline>
</glyph>
<glyph name="Aring" format="1">
  <advance width="626"/>
  <unicode hex="00C5"/>
  <outline>
    <contour>
      <point x="596" y="0" type="line"/>
      <point x="548" y="0" type="line"/>
      <point x="448" y="280" type="line"/>
      <point x="178" y="280" type="line"/>
      <point x="78" y="0" type="line"/>
      <point x="30" y="0" type="line"/>
      <point x="290" y="712" type="line"/>
      <point x="249" y="723"/>
      <point x="218" y="760"/>
      <point x="218" y="805" type="curve" smooth="yes"/>
      <point x="218" y="858"/>
      <point x="261" y="901"/>
      <point x="314" y="901" type="curve" smooth="yes"/>
      <point x="367" y="901"/>
      <point x="410" y="858"/>
      <point x="410" y="805" type="curve" smooth="yes"/>
      <point x="410" y="760"/>
      <point x="379" y="722"/>
      <point x="337" y="712" type="curve"/>
    </contour>
    <contour>
      <point x="374" y="805" type="curve" smooth="yes"/>
      <point x="374" y="838"/>
      <point x="347" y="865"/>
      <point x="314" y="865" type="curve" smooth="yes"/>
      <point x="281" y="865"/>
      <point x="254" y="838"/>
      <point x="254" y="805" type="curve" smooth="yes"/>
      <point x="254" y="772"/>
      <point x="281" y="745"/>
      <point x="314" y="745" type="curve" smooth="yes"/>
      <point x="347" y="745"/>
      <point x="374" y="772"/>
    </contour>
    <contour>
      <point x="434" y="320" type="line"/>
      <point x="313" y="659" type="line"/>
      <point x="192" y="320" type="line"/>
    </contour>
  </outline>
</glyph>
<glyph name="AE" format="1">
  <advance width="896"/>
  <unicode hex="00C6"/>
  <outline>
    <contour>
      <point x="845" y="0" type="line"/>
      <point x="457" y="0" type="line"/>
      <point x="457" y="240" type="line"/>
      <point x="200" y="240" type="line"/>
      <point x="60" y="0" type="line"/>
      <point x="14" y="0" type="line"/>
      <point x="437" y="730" type="line"/>
      <point x="826" y="730" type="line"/>
      <point x="826" y="690" type="line"/>
      <point x="502" y="690" type="line"/>
      <point x="502" y="405" type="line"/>
      <point x="794" y="405" type="line"/>
      <point x="794" y="365" type="line"/>
      <point x="502" y="365" type="line"/>
      <point x="502" y="40" type="line"/>
      <point x="845" y="40" type="line"/>
    </contour>
    <contour>
      <point x="457" y="280" type="line"/>
      <point x="457" y="687" type="line"/>
      <point x="223" y="280" type="line"/>
    </contour>
  </outline>
</glyph>
<glyph name="Ccedilla" format="1">
  <advance width="714"/>
  <unicode hex="00C7"/>
  <outline>
    <contour>
      <point x="672" y="117" type="line"/>
      <point x="624" y="60"/>
      <point x="542" y="-5"/>
      <point x="419" y="-11" type="curve"/>
      <point x="393" y="-47" type="line"/>
      <point x="444" y="-42"/>
      <point x="480" y="-67"/>
      <point x="480" y="-104" type="curve" smooth="yes"/>
      <point x="480" y="-158"/>
      <point x="434" y="-179"/>
      <point x="387" y="-179" type="curve" smooth="yes"/>
      <point x="354" y="-179"/>
      <point x="315" y="-163"/>
      <point x="296" y="-147" type="curve"/>
      <point x="315" y="-122" type="line"/>
      <point x="329" y="-134"/>
      <point x="364" y="-146"/>
      <point x="388" y="-146" type="curve" smooth="yes"/>
      <point x="416" y="-146"/>
      <point x="438" y="-135"/>
      <point x="438" y="-110" type="curve" smooth="yes"/>
      <point x="438" y="-89"/>
      <point x="423" y="-74"/>
      <point x="389" y="-74" type="curve" smooth="yes"/>
      <point x="375" y="-74"/>
      <point x="358" y="-77"/>
      <point x="346" y="-82" type="curve"/>
      <point x="335" y="-65" type="line"/>
      <point x="376" y="-11" type="line"/>
      <point x="190" y="1"/>
      <point x="45" y="159"/>
      <point x="45" y="365" type="curve" smooth="yes"/>
      <point x="45" y="564"/>
      <point x="199" y="742"/>
      <point x="398" y="742" type="curve" smooth="yes"/>
      <point x="506" y="742"/>
      <point x="601" y="698"/>
      <point x="658" y="627" type="curve"/>
      <point x="626" y="598" type="line"/>
      <point x="571" y="661"/>
      <point x="495" y="700"/>
      <point x="397" y="700" type="curve" smooth="yes"/>
      <point x="218" y="700"/>
      <point x="92" y="542"/>
      <point x="92" y="368" type="curve" smooth="yes"/>
      <point x="92" y="177"/>
      <point x="224" y="30"/>
      <point x="400" y="30" type="curve" smooth="yes"/>
      <point x="511" y="30"/>
      <point x="577" y="75"/>
      <point x="641" y="144" type="curve"/>
    </contour>
  </outline>
</glyph>
<glyph name="Idieresis" format="1">
  <advance width="205"/>
  <unicode hex="00CF"/>
  <outline>
    <contour>
      <point x="196" y="790" type="line"/>
      <point x="150" y="790" type="line"/>
      <point x="150" y="874" type="line"/>
      <point x="196" y="874" type="line"/>
    </contour>
    <contour>
      <point x="55" y="790" type="line"/>
      <point x="9" y="790" type="line"/>
      <point x="9" y="874" type="line"/>
      <point x="55" y="874" type="line"/>
    </contour>
    <component base="I"/>
  </outline>
</glyph>
<glyph name="Eth" format="1">
  <advance width="672"/>
  <unicode hex="00D0"/>
  <outline>
    <contour>
      <point x="627" y="372" type="curve" smooth="yes"/>
      <point x="627" y="139"/>
      <point x="455" y="0"/>
      <point x="248" y="0" type="curve" smooth="yes"/>
      <point x="98" y="0" type="line"/>
      <point x="98" y="361" type="line"/>
      <point x="38" y="361" type="line"/>
      <point x="38" y="401" type="line"/>
      <point x="98" y="401" type="line"/>
      <point x="98" y="730" type="line"/>
      <point x="248" y="730" type="line" smooth="yes"/>
      <point x="455" y="730"/>
      <point x="627" y="605"/>
    </contour>
    <contour>
      <point x="580" y="372" type="curve" smooth="yes"/>
      <point x="580" y="572"/>
      <point x="441" y="690"/>
      <point x="260" y="690" type="curve" smooth="yes"/>
      <point x="143" y="690" type="line"/>
      <point x="143" y="401" type="line"/>
      <point x="308" y="401" type="line"/>
      <point x="308" y="361" type="line"/>
      <point x="143" y="361" type="line"/>
      <point x="143" y="40" type="line"/>
      <point x="260" y="40" type="line" smooth="yes"/>
      <point x="441" y="40"/>
      <point x="580" y="172"/>
    </contour>
  </outline>
</glyph>
<glyph name="Odieresis" format="1">
  <advance width="810"/>
  <unicode hex="00D6"/>
  <outline>
    <contour>
      <point x="769" y="646" type="line"/>
      <point x="723" y="646" type="line"/>
      <point x="723" y="730" type="line"/>
      <point x="769" y="730" type="line"/>
    </contour>
    <contour>
      <point x="87" y="646" type="line"/>
      <point x="41" y="646" type="line"/>
      <point x="41" y="730" type="line"/>
      <point x="87" y="730" type="line"/>
    </contour>
    <component base="O"/>
  </outline>
</glyph>
<glyph name="multiply" format="1">
  <advance width="483"/>
  <unicode hex="00D7"/>
  <outline>
    <contour>
      <point x="241" y="301" type="line"/>
      <point x="104" y="164" type="line"/>
      <point x="76" y="192" type="line"/>
      <point x="213" y="329" type="line"/>
      <point x="75" y="467" type="line"/>
      <point x="103" y="495" type="line"/>
      <point x="241" y="357" type="line"/>
      <point x="381" y="497" type="line"/>
      <point x="409" y="469" type="line"/>
      <point x="269" y="329" type="line"/>
      <point x="405" y="193" type="line"/>
      <point x="377" y="165" type="line"/>
    </contour>
  </outline>
</glyph>
<glyph name="Oslash" format="1">
  <advance width="810"/>
  <unicode hex="00D8"/>
  <outline>
    <contour>
      <point x="765" y="366" type="curve" smooth="yes"/>
      <point x="765" y="153"/>
      <point x="608" y="-12"/>
      <point x="406" y="-12" type="curve" smooth="yes"/>
      <point x="316" y="-12"/>
      <point x="235" y="20"/>
      <point x="172" y="75" type="curve"/>
      <point x="95" y="-12" type="line"/>
      <point x="66" y="14" type="line"/>
      <point x="144" y="102" type="line"/>
      <point x="83" y="170"/>
      <point x="45" y="262"/>
      <point x="45" y="365" type="curve" smooth="yes"/>
      <point x="45" y="578"/>
      <point x="204" y="742"/>
      <point x="406" y="742" type="curve" smooth="yes"/>
      <point x="495" y="742"/>
      <point x="575" y="711"/>
      <point x="637" y="657" type="curve"/>
      <point x="712" y="742" type="line"/>
      <point x="743" y="718" type="line"/>
      <point x="665" y="630" type="line"/>
      <point x="728" y="563"/>
      <point x="765" y="471"/>
    </contour>
    <contour>
      <point x="608" y="625" type="line"/>
      <point x="555" y="672"/>
      <point x="485" y="700"/>
      <point x="406" y="700" type="curve" smooth="yes"/>
      <point x="229" y="700"/>
      <point x="92" y="555"/>
      <point x="92" y="365" type="curve" smooth="yes"/>
      <point x="92" y="275"/>
      <point x="123" y="195"/>
      <point x="174" y="136" type="curve"/>
    </contour>
    <contour>
      <point x="718" y="365" type="curve" smooth="yes"/>
      <point x="718" y="456"/>
      <point x="687" y="537"/>
      <point x="635" y="597" type="curve"/>
      <point x="201" y="108" type="line"/>
      <point x="256" y="59"/>
      <point x="327" y="30"/>
      <point x="406" y="30" type="curve" smooth="yes"/>
      <point x="583" y="30"/>
      <point x="718" y="175"/>
    </contour>
  </outline>
</glyph>
<glyph name="Thorn" format="1">
  <advance width="523"/>
  <unicode hex="00DE"/>
  <outline>
    <contour>
      <point x="483" y="389" type="curve" smooth="yes"/>
      <point x="483" y="263"/>
      <point x="398" y="175"/>
      <point x="240" y="175" type="curve" smooth="yes"/>
      <point x="125" y="175" type="line"/>
      <point x="125" y="0" type="line"/>
      <point x="80" y="0" type="line"/>
      <point x="80" y="730" type="line"/>
      <point x="125" y="730" type="line"/>
      <point x="125" y="587" type="line"/>
      <point x="240" y="587" type="line" smooth="yes"/>
      <point x="402" y="587"/>
      <point x="483" y="504"/>
    </contour>
    <contour>
      <point x="436" y="385" type="curve" smooth="yes"/>
      <point x="436" y="486"/>
      <point x="375" y="547"/>
      <point x="232" y="547" type="curve" smooth="yes"/>
      <point x="125" y="547" type="line"/>
      <point x="125" y="215" type="line"/>
      <point x="250" y="215" type="line" smooth="yes"/>
      <point x="384" y="215"/>
      <point x="436" y="292"/>
    </contour>
  </outline>
</glyph>
<glyph name="germandbls" format="1">
  <advance width="441"/>
  <unicode hex="00DF"/>
  <outline>
    <contour>
      <point x="408" y="161" type="curve" smooth="yes"/>
      <point x="408" y="71"/>
      <point x="351" y="-12"/>
      <point x="258" y="-12" type="curve" smooth="yes"/>
      <point x="213" y="-12"/>
      <point x="180" y="-2"/>
      <point x="163" y="10" type="curve"/>
      <point x="181" y="42" type="line"/>
      <point x="199" y="31"/>
      <point x="221" y="26"/>
      <point x="258" y="26" type="curve" smooth="yes"/>
      <point x="320" y="26"/>
      <point x="365" y="86"/>
      <point x="365" y="161" type="curve" smooth="yes"/>
      <point x="365" y="294"/>
      <point x="269" y="390"/>
      <point x="173" y="407" type="curve"/>
      <point x="173" y="438" type="line"/>
      <point x="246" y="441"/>
      <point x="322" y="493"/>
      <point x="322" y="586" type="curve" smooth="yes"/>
      <point x="322" y="668"/>
      <point x="273" y="704"/>
      <point x="208" y="704" type="curve" smooth="yes"/>
      <point x="146" y="704"/>
      <point x="106" y="658"/>
      <point x="106" y="584" type="curve" smooth="yes"/>
      <point x="106" y="0" type="line"/>
      <point x="65" y="0" type="line"/>
      <point x="65" y="582" type="line" smooth="yes"/>
      <point x="65" y="676"/>
      <point x="115" y="742"/>
      <point x="211" y="742" type="curve" smooth="yes"/>
      <point x="288" y="742"/>
      <point x="365" y="693"/>
      <point x="365" y="586" type="curve" smooth="yes"/>
      <point x="365" y="505"/>
      <point x="313" y="443"/>
      <point x="245" y="420" type="curve"/>
      <point x="316" y="395"/>
      <point x="408" y="292"/>
    </contour>
  </outline>
</glyph>
<glyph name="ae" format="1">
  <advance width="728"/>
  <unicode hex="00E6"/>
  <outline>
    <contour>
      <point x="700" y="206" type="curve"/>
      <point x="369" y="206" type="line"/>
      <point x="370" y="104"/>
      <point x="429" y="26"/>
      <point x="532" y="26" type="curve" smooth="yes"/>
      <point x="591" y="26"/>
      <point x="625" y="48"/>
      <point x="662" y="86" type="curve"/>
      <point x="691" y="61" type="line"/>
      <point x="663" y="26"/>
      <point x="615" y="-12"/>
      <point x="530" y="-12" type="curve" smooth="yes"/>
      <point x="453" y="-12"/>
      <point x="390" y="28"/>
      <point x="364" y="75" type="curve"/>
      <point x="321" y="29"/>
      <point x="252" y="-12"/>
      <point x="179" y="-12" type="curve" smooth="yes"/>
      <point x="100" y="-12"/>
      <point x="35" y="32"/>
      <point x="35" y="114" type="curve" smooth="yes"/>
      <point x="35" y="208"/>
      <point x="112" y="242"/>
      <point x="235" y="242" type="curve" smooth="yes"/>
      <point x="329" y="242" type="line"/>
      <point x="329" y="277" type="line" smooth="yes"/>
      <point x="329" y="367"/>
      <point x="269" y="375"/>
      <point x="213" y="375" type="curve" smooth="yes"/>
      <point x="164" y="375"/>
      <point x="125" y="366"/>
      <point x="92" y="346" type="curve"/>
      <point x="75" y="380" type="line"/>
      <point x="112" y="401"/>
      <point x="158" y="413"/>
      <point x="213" y="413" type="curve" smooth="yes"/>
      <point x="305" y="413"/>
      <point x="355" y="378"/>
      <point x="361" y="324" type="curve"/>
      <point x="389" y="379"/>
      <point x="449" y="413"/>
      <point x="521" y="413" type="curve" smooth="yes"/>
      <point x="646" y="413"/>
      <point x="695" y="309"/>
    </contour>
    <contour>
      <point x="650" y="242" type="line"/>
      <point x="645" y="304"/>
      <point x="608" y="375"/>
      <point x="519" y="375" type="curve" smooth="yes"/>
      <point x="429" y="375"/>
      <point x="382" y="314"/>
      <point x="371" y="242" type="curve"/>
    </contour>
    <contour>
      <point x="345" y="110" type="curve"/>
      <point x="334" y="139"/>
      <point x="329" y="170"/>
      <point x="329" y="206" type="curve"/>
      <point x="239" y="206" type="line" smooth="yes"/>
      <point x="138" y="206"/>
      <point x="78" y="184"/>
      <point x="78" y="114" type="curve" smooth="yes"/>
      <point x="78" y="58"/>
      <point x="123" y="26"/>
      <point x="179" y="26" type="curve" smooth="yes"/>
      <point x="252" y="26"/>
      <point x="315" y="73"/>
    </contour>
  </outline>
</glyph>
<glyph name="ccedilla" format="1">
  <advance width="428"/>
  <unicode hex="00E7"/>
  <outline>
    <contour>
      <point x="403" y="87" type="line"/>
      <point x="370" y="36"/>
      <point x="319" y="-4"/>
      <point x="252" y="-11" type="curve"/>
      <point x="226" y="-47" type="line"/>
      <point x="277" y="-42"/>
      <point x="313" y="-67"/>
      <point x="313" y="-104" type="curve" smooth="yes"/>
      <point x="313" y="-158"/>
      <point x="267" y="-179"/>
      <point x="220" y="-179" type="curve" smooth="yes"/>
      <point x="187" y="-179"/>
      <point x="148" y="-163"/>
      <point x="129" y="-147" type="curve"/>
      <point x="148" y="-122" type="line"/>
      <point x="162" y="-134"/>
      <point x="197" y="-146"/>
      <point x="221" y="-146" type="curve" smooth="yes"/>
      <point x="249" y="-146"/>
      <point x="271" y="-135"/>
      <point x="271" y="-110" type="curve" smooth="yes"/>
      <point x="271" y="-89"/>
      <point x="256" y="-74"/>
      <point x="222" y="-74" type="curve" smooth="yes"/>
      <point x="208" y="-74"/>
      <point x="191" y="-77"/>
      <point x="179" y="-82" type="curve"/>
      <point x="168" y="-65" type="line"/>
      <point x="209" y="-11" type="line"/>
      <point x="107" y="1"/>
      <point x="33" y="90"/>
      <point x="33" y="202" type="curve" smooth="yes"/>
      <point x="33" y="320"/>
      <point x="119" y="413"/>
      <point x="229" y="413" type="curve" smooth="yes"/>
      <point x="316" y="413"/>
      <point x="366" y="372"/>
      <point x="396" y="336" type="curve"/>
      <point x="363" y="310" type="line"/>
      <point x="331" y="350"/>
      <point x="290" y="375"/>
      <point x="235" y="375" type="curve" smooth="yes"/>
      <point x="141" y="375"/>
      <point x="76" y="298"/>
      <point x="76" y="204" type="curve" smooth="yes"/>
      <point x="76" y="107"/>
      <point x="141" y="26"/>
      <point x="229" y="26" type="curve" smooth="yes"/>
      <point x="293" y="26"/>
      <point x="336" y="57"/>
      <point x="371" y="108" type="curve"/>
    </contour>
  </outline>
</glyph>
<glyph name="idieresis" format="1">
  <advance width="171"/>
  <unicode hex="00EF"/>
  <outline>
    <contour>
      <point x="171" y="484" type="line"/>
      <point x="125" y="484" type="line"/>
      <point x="125" y="568" type="line"/>
      <point x="171" y="568" type="line"/>
    </contour>
    <contour>
      <point x="46" y="484" type="line"/>
      <point x="0" y="484" type="line"/>
      <point x="0" y="568" type="line"/>
      <point x="46" y="568" type="line"/>
    </contour>
    <component base="dotlessi"/>
  </outline>
</glyph>
<glyph name="eth" format="1">
  <advance width="502"/>
  <unicode hex="00F0"/>
  <outline>
    <contour>
      <point x="469" y="212" type="curve" smooth="yes"/>
      <point x="469" y="109"/>
      <point x="396" y="-12"/>
      <point x="245" y="-12" type="curve" smooth="yes"/>
      <point x="129" y="-12"/>
      <point x="33" y="75"/>
      <point x="33" y="211" type="curve" smooth="yes"/>
      <point x="33" y="323"/>
      <point x="135" y="413"/>
      <point x="250" y="413" type="curve" smooth="yes"/>
      <point x="313" y="413"/>
      <point x="374" y="387"/>
      <point x="411" y="336" type="curve"/>
      <point x="400" y="396"/>
      <point x="362" y="502"/>
      <point x="283" y="601" type="curve"/>
      <point x="149" y="547" type="line"/>
      <point x="133" y="579" type="line"/>
      <point x="259" y="630" type="line"/>
      <point x="230" y="662"/>
      <point x="197" y="693"/>
      <point x="158" y="722" type="curve"/>
      <point x="183" y="749" type="line"/>
      <point x="225" y="718"/>
      <point x="263" y="683"/>
      <point x="296" y="645" type="curve"/>
      <point x="370" y="675" type="line"/>
      <point x="385" y="643" type="line"/>
      <point x="320" y="616" type="line"/>
      <point x="419" y="491"/>
      <point x="469" y="339"/>
    </contour>
    <contour>
      <point x="424" y="201" type="curve" smooth="yes"/>
      <point x="424" y="302"/>
      <point x="347" y="375"/>
      <point x="250" y="375" type="curve" smooth="yes"/>
      <point x="153" y="375"/>
      <point x="76" y="302"/>
      <point x="76" y="201" type="curve" smooth="yes"/>
      <point x="76" y="100"/>
      <point x="153" y="26"/>
      <point x="250" y="26" type="curve" smooth="yes"/>
      <point x="347" y="26"/>
      <point x="424" y="100"/>
    </contour>
  </outline>
</glyph>
<glyph name="oslash" format="1">
  <advance width="490"/>
  <unicode hex="00F8"/>
  <outline>
    <contour>
      <point x="460" y="389" type="line"/>
      <point x="410" y="338" type="line"/>
      <point x="439" y="302"/>
      <point x="457" y="255"/>
      <point x="457" y="201" type="curve" smooth="yes"/>
      <point x="457" y="76"/>
      <point x="362" y="-12"/>
      <point x="245" y="-12" type="curve" smooth="yes"/>
      <point x="194" y="-12"/>
      <point x="147" y="5"/>
      <point x="111" y="34" type="curve"/>
      <point x="66" y="-12" type="line"/>
      <point x="40" y="14" type="line"/>
      <point x="84" y="59" type="line"/>
      <point x="52" y="95"/>
      <point x="33" y="144"/>
      <point x="33" y="201" type="curve" smooth="yes"/>
      <point x="33" y="326"/>
      <point x="128" y="413"/>
      <point x="245" y="413" type="curve" smooth="yes"/>
      <point x="298" y="413"/>
      <point x="347" y="395"/>
      <point x="384" y="364" type="curve"/>
      <point x="432" y="413" type="line"/>
    </contour>
    <contour>
      <point x="356" y="335" type="line"/>
      <point x="326" y="361"/>
      <point x="288" y="375"/>
      <point x="245" y="375" type="curve" smooth="yes"/>
      <point x="148" y="375"/>
      <point x="76" y="302"/>
      <point x="76" y="201" type="curve" smooth="yes"/>
      <point x="76" y="157"/>
      <point x="90" y="118"/>
      <point x="113" y="88" type="curve"/>
    </contour>
    <contour>
      <point x="414" y="201" type="curve" smooth="yes"/>
      <point x="414" y="243"/>
      <point x="402" y="279"/>
      <point x="381" y="308" type="curve"/>
      <point x="139" y="62" type="line"/>
      <point x="167" y="39"/>
      <point x="204" y="26"/>
      <point x="245" y="26" type="curve" smooth="yes"/>
      <point x="342" y="26"/>
      <point x="414" y="100"/>
    </contour>
  </outline>
</glyph>
<glyph name="Lslash" format="1">
  <advance width="494"/>
  <unicode hex="0141"/>
  <outline>
    <contour>
      <point x="468" y="0" type="line"/>
      <point x="90" y="0" type="line"/>
      <point x="90" y="288" type="line"/>
      <point x="46" y="270" type="line"/>
      <point x="28" y="309" type="line"/>
      <point x="90" y="334" type="line"/>
      <point x="90" y="730" type="line"/>
      <point x="135" y="730" type="line"/>
      <point x="135" y="352" type="line"/>
      <point x="291" y="415" type="line"/>
      <point x="308" y="376" type="line"/>
      <point x="135" y="306" type="line"/>
      <point x="135" y="40" type="line"/>
      <point x="468" y="40" type="line"/>
    </contour>
  </outline>
</glyph>
<glyph name="lslash" format="1">
  <advance width="221"/>
  <unicode hex="0142"/>
  <outline>
    <contour>
      <point x="200" y="340" type="line"/>
      <point x="131" y="312" type="line"/>
      <point x="131" y="0" type="line"/>
      <point x="90" y="0" type="line"/>
      <point x="90" y="295" type="line"/>
      <point x="38" y="274" type="line"/>
      <point x="20" y="313" type="line"/>
      <point x="90" y="341" type="line"/>
      <point x="90" y="730" type="line"/>
      <point x="131" y="730" type="line"/>
      <point x="131" y="358" type="line"/>
      <point x="183" y="379" type="line"/>
    </contour>
  </outline>
</glyph>
<glyph name="OE" format="1">
  <advance width="1157"/>
  <unicode hex="0152"/>
  <outline>
    <contour>
      <point x="1106" y="0" type="line"/>
      <point x="718" y="0" type="line"/>
      <point x="718" y="175" type="line"/>
      <point x="657" y="62"/>
      <point x="541" y="-12"/>
      <point x="406" y="-12" type="curve" smooth="yes"/>
      <point x="204" y="-12"/>
      <point x="45" y="152"/>
      <point x="45" y="365" type="curve" smooth="yes"/>
      <point x="45" y="578"/>
      <point x="204" y="742"/>
      <point x="406" y="742" type="curve" smooth="yes"/>
      <point x="541" y="742"/>
      <point x="657" y="669"/>
      <point x="718" y="556" type="curve"/>
      <point x="718" y="730" type="line"/>
      <point x="1087" y="730" type="line"/>
      <point x="1087" y="690" type="line"/>
      <point x="763" y="690" type="line"/>
      <point x="763" y="405" type="line"/>
      <point x="1055" y="405" type="line"/>
      <point x="1055" y="365" type="line"/>
      <point x="763" y="365" type="line"/>
      <point x="763" y="40" type="line"/>
      <point x="1106" y="40" type="line"/>
    </contour>
    <contour>
      <point x="718" y="365" type="curve" smooth="yes"/>
      <point x="718" y="555"/>
      <point x="585" y="700"/>
      <point x="406" y="700" type="curve" smooth="yes"/>
      <point x="229" y="700"/>
      <point x="92" y="555"/>
      <point x="92" y="365" type="curve" smooth="yes"/>
      <point x="92" y="175"/>
      <point x="229" y="30"/>
      <point x="406" y="30" type="curve" smooth="yes"/>
      <point x="583" y="30"/>
      <point x="718" y="175"/>
    </contour>
  </outline>
</glyph>
<glyph name="oe" format="1">
  <advance width="810"/>
  <unicode hex="0153"/>
  <outline>
    <contour>
      <point x="782" y="206" type="curve"/>
      <point x="446" y="206" type="line"/>
      <point x="447" y="100"/>
      <point x="506" y="26"/>
      <point x="609" y="26" type="curve" smooth="yes"/>
      <point x="668" y="26"/>
      <point x="707" y="48"/>
      <point x="744" y="86" type="curve"/>
      <point x="773" y="61" type="line"/>
      <point x="745" y="26"/>
      <point x="692" y="-12"/>
      <point x="607" y="-12" type="curve" smooth="yes"/>
      <point x="514" y="-12"/>
      <point x="452" y="38"/>
      <point x="425" y="107" type="curve"/>
      <point x="398" y="37"/>
      <point x="323" y="-12"/>
      <point x="240" y="-12" type="curve" smooth="yes"/>
      <point x="123" y="-12"/>
      <point x="33" y="76"/>
      <point x="33" y="201" type="curve" smooth="yes"/>
      <point x="33" y="326"/>
      <point x="123" y="413"/>
      <point x="240" y="413" type="curve" smooth="yes"/>
      <point x="321" y="413"/>
      <point x="395" y="369"/>
      <point x="424" y="298" type="curve"/>
      <point x="448" y="363"/>
      <point x="511" y="413"/>
      <point x="601" y="413" type="curve" smooth="yes"/>
      <point x="725" y="413"/>
      <point x="777" y="309"/>
    </contour>
    <contour>
      <point x="732" y="242" type="line"/>
      <point x="727" y="304"/>
      <point x="685" y="375"/>
      <point x="599" y="375" type="curve" smooth="yes"/>
      <point x="505" y="375"/>
      <point x="459" y="314"/>
      <point x="448" y="242" type="curve"/>
    </contour>
    <contour>
      <point x="405" y="201" type="curve" smooth="yes"/>
      <point x="405" y="302"/>
      <point x="339" y="375"/>
      <point x="240" y="375" type="curve" smooth="yes"/>
      <point x="143" y="375"/>
      <point x="76" y="302"/>
      <point x="76" y="201" type="curve" smooth="yes"/>
      <point x="76" y="100"/>
      <point x="143" y="26"/>
      <point x="240" y="26" type="curve" smooth="yes"/>
      <point x="337" y="26"/>
      <point x="405" y="100"/>
    </contour>
  </outline>
</glyph>
<glyph name="florin" format="1">
  <advance width="241"/>
  <unicode hex="0192"/>
  <outline>
    <contour>
      <point x="236" y="730" type="line"/>
      <point x="233" y="692" type="line"/>
      <point x="202" y="692" type="line" smooth="yes"/>
      <point x="176" y="692"/>
      <point x="157" y="672"/>
      <point x="154" y="635" type="curve" smooth="yes"/>
      <point x="133" y="401" type="line"/>
      <point x="202" y="401" type="line"/>
      <point x="199" y="365" type="line"/>
      <point x="130" y="365" type="line"/>
      <point x="90" y="-91" type="line" smooth="yes"/>
      <point x="85" y="-153"/>
      <point x="48" y="-179"/>
      <point x="2" y="-179" type="curve" smooth="yes"/>
      <point x="-32" y="-179" type="line"/>
      <point x="-29" y="-141" type="line"/>
      <point x="2" y="-141" type="line" smooth="yes"/>
      <point x="28" y="-141"/>
      <point x="47" y="-121"/>
      <point x="50" y="-84" type="curve" smooth="yes"/>
      <point x="89" y="365" type="line"/>
      <point x="34" y="365" type="line"/>
      <point x="37" y="401" type="line"/>
      <point x="92" y="401" type="line"/>
      <point x="113" y="642" type="line" smooth="yes"/>
      <point x="118" y="704"/>
      <point x="156" y="730"/>
      <point x="202" y="730" type="curve" smooth="yes"/>
    </contour>
  </outline>
</glyph>
<glyph name="circumflex" format="1">
  <advance width="440"/>
  <unicode hex="02C6"/>
  <outline>
    <contour>
      <point x="337" y="484" type="line"/>
      <point x="288" y="484" type="line"/>
      <point x="220" y="569" type="line"/>
      <point x="152" y="484" type="line"/>
      <point x="103" y="484" type="line"/>
      <point x="204" y="608" type="line"/>
      <point x="236" y="608" type="line"/>
    </contour>
  </outline>
</glyph>
<glyph name="breve" format="1">
  <advance width="440"/>
  <unicode hex="02D8"/>
  <outline>
    <contour>
      <point x="348" y="607" type="line"/>
      <point x="348" y="528"/>
      <point x="293" y="480"/>
      <point x="220" y="480" type="curve" smooth="yes"/>
      <point x="147" y="480"/>
      <point x="92" y="528"/>
      <point x="92" y="607" type="curve"/>
      <point x="137" y="607" type="line"/>
      <point x="137" y="556"/>
      <point x="167" y="519"/>
      <point x="220" y="519" type="curve" smooth="yes"/>
      <point x="272" y="519"/>
      <point x="303" y="556"/>
      <point x="303" y="607" type="curve"/>
    </contour>
  </outline>
</glyph>
<glyph name="ring" format="1">
  <advance width="440"/>
  <unicode hex="02DA"/>
  <outline>
    <contour>
      <point x="316" y="573" type="curve" smooth="yes"/>
      <point x="316" y="520"/>
      <point x="273" y="477"/>
      <point x="220" y="477" type="curve" smooth="yes"/>
      <point x="167" y="477"/>
      <point x="124" y="520"/>
      <point x="124" y="573" type="curve" smooth="yes"/>
      <point x="124" y="626"/>
      <point x="167" y="669"/>
      <point x="220" y="669" type="curve" smooth="yes"/>
      <point x="273" y="669"/>
      <point x="316" y="626"/>
    </contour>
    <contour>
      <point x="282" y="573" type="curve" smooth="yes"/>
      <point x="282" y="607"/>
      <point x="254" y="635"/>
      <point x="220" y="635" type="curve" smooth="yes"/>
      <point x="186" y="635"/>
      <point x="158" y="607"/>
      <point x="158" y="573" type="curve" smooth="yes"/>
      <point x="158" y="539"/>
      <point x="186" y="511"/>
      <point x="220" y="511" type="curve" smooth="yes"/>
      <point x="254" y="511"/>
      <point x="282" y="539"/>
    </contour>
  </outline>
</glyph>
<glyph name="ogonek" format="1">
  <advance width="440"/>
  <unicode hex="02DB"/>
  <outline>
    <contour>
      <point x="304" y="-143" type="line"/>
      <point x="285" y="-164"/>
      <point x="246" y="-179"/>
      <point x="217" y="-179" type="curve" smooth="yes"/>
      <point x="162" y="-179"/>
      <point x="115" y="-152"/>
      <point x="115" y="-98" type="curve" smooth="yes"/>
      <point x="115" y="-61"/>
      <point x="147" y="-18"/>
      <point x="206" y="12" type="curve"/>
      <point x="255" y="12" type="line"/>
      <point x="188" y="-26"/>
      <point x="160" y="-64"/>
      <point x="160" y="-94" type="curve" smooth="yes"/>
      <point x="160" y="-129"/>
      <point x="182" y="-142"/>
      <point x="222" y="-142" type="curve" smooth="yes"/>
      <point x="244" y="-142"/>
      <point x="268" y="-133"/>
      <point x="286" y="-118" type="curve"/>
    </contour>
  </outline>
</glyph>
<glyph name="tilde" format="1">
  <advance width="440"/>
  <unicode hex="02DC"/>
  <outline>
    <contour>
      <point x="350" y="561" type="line"/>
      <point x="347" y="515"/>
      <point x="332" y="482"/>
      <point x="277" y="482" type="curve" smooth="yes"/>
      <point x="255" y="482"/>
      <point x="233" y="494"/>
      <point x="213" y="505" type="curve" smooth="yes"/>
      <point x="194" y="516"/>
      <point x="177" y="525"/>
      <point x="163" y="525" type="curve" smooth="yes"/>
      <point x="142" y="525"/>
      <point x="132" y="509"/>
      <point x="131" y="484" type="curve"/>
      <point x="90" y="484" type="line"/>
      <point x="93" y="530"/>
      <point x="109" y="563"/>
      <point x="163" y="563" type="curve" smooth="yes"/>
      <point x="183" y="563"/>
      <point x="204" y="553"/>
      <point x="223" y="543" type="curve" smooth="yes"/>
      <point x="244" y="531"/>
      <point x="263" y="520"/>
      <point x="277" y="520" type="curve" smooth="yes"/>
      <point x="298" y="520"/>
      <point x="308" y="536"/>
      <point x="309" y="561" type="curve"/>
    </contour>
  </outline>
</glyph>
<glyph name="hungarumlaut" format="1">
  <advance width="440"/>
  <unicode hex="02DD"/>
  <outline>
    <contour>
      <point x="336" y="614" type="line"/>
      <point x="254" y="484" type="line"/>
      <point x="207" y="484" type="line"/>
      <point x="289" y="614" type="line"/>
    </contour>
    <contour>
      <point x="217" y="614" type="line"/>
      <point x="135" y="484" type="line"/>
      <point x="88" y="484" type="line"/>
      <point x="170" y="614" type="line"/>
    </contour>
  </outline>
</glyph>
<glyph name="endash" format="1">
  <advance width="410"/>
  <unicode hex="2013"/>
  <outline>
    <contour>
      <point x="350" y="206" type="line"/>
      <point x="60" y="206" type="line"/>
      <point x="60" y="246" type="line"/>
      <point x="350" y="246" type="line"/>
    </contour>
  </outline>
</glyph>
<glyph name="emdash" format="1">
  <advance width="570"/>
  <unicode hex="2014"/>
  <outline>
    <contour>
      <point x="510" y="206" type="line"/>
      <point x="60" y="206" type="line"/>
      <point x="60" y="246" type="line"/>
      <point x="510" y="246" type="line"/>
    </contour>
  </outline>
</glyph>
<glyph name="quoteleft" format="1">
  <advance width="165"/>
  <unicode hex="2018"/>
  <unicode hex="02BB"/>
  <outline>
    <contour>
      <point x="129" y="730" type="line"/>
      <point x="105" y="696"/>
      <point x="105" y="663"/>
      <point x="105" y="624" type="curve" smooth="yes"/>
      <point x="105" y="553" type="line"/>
      <point x="60" y="553" type="line"/>
      <point x="60" y="622" type="line" smooth="yes"/>
      <point x="60" y="658"/>
      <point x="76" y="702"/>
      <point x="101" y="730" type="curve"/>
    </contour>
  </outline>
</glyph>
<glyph name="quoteright" format="1">
  <advance width="165"/>
  <unicode hex="2019"/>
  <unicode hex="02BC"/>
  <outline>
    <contour>
      <point x="105" y="661" type="line" smooth="yes"/>
      <point x="105" y="625"/>
      <point x="89" y="581"/>
      <point x="64" y="553" type="curve"/>
      <point x="36" y="553" type="line"/>
      <point x="60" y="587"/>
      <point x="60" y="620"/>
      <point x="60" y="659" type="curve" smooth="yes"/>
      <point x="60" y="730" type="line"/>
      <point x="105" y="730" type="line"/>
    </contour>
  </outline>
</glyph>
<glyph name="quotesinglbase" format="1">
  <advance width="165"/>
  <unicode hex="201A"/>
  <outline>
    <contour>
      <point x="105" y="15" type="line" smooth="yes"/>
      <point x="105" y="-21"/>
      <point x="89" y="-65"/>
      <point x="64" y="-93" type="curve"/>
      <point x="36" y="-93" type="line"/>
      <point x="60" y="-59"/>
      <point x="60" y="-26"/>
      <point x="60" y="13" type="curve" smooth="yes"/>
      <point x="60" y="84" type="line"/>
      <point x="105" y="84" type="line"/>
    </contour>
  </outline>
</glyph>
<glyph name="quotedblleft" format="1">
  <advance width="280"/>
  <unicode hex="201C"/>
  <outline>
    <contour>
      <point x="244" y="730" type="line"/>
      <point x="220" y="696"/>
      <point x="220" y="663"/>
      <point x="220" y="624" type="curve" smooth="yes"/>
      <point x="220" y="553" type="line"/>
      <point x="175" y="553" type="line"/>
      <point x="175" y="622" type="line" smooth="yes"/>
      <point x="175" y="658"/>
      <point x="191" y="702"/>
      <point x="216" y="730" type="curve"/>
    </contour>
    <contour>
      <point x="129" y="730" type="line"/>
      <point x="105" y="696"/>
      <point x="105" y="663"/>
      <point x="105" y="624" type="curve" smooth="yes"/>
      <point x="105" y="553" type="line"/>
      <point x="60" y="553" type="line"/>
      <point x="60" y="622" type="line" smooth="yes"/>
      <point x="60" y="658"/>
      <point x="76" y="702"/>
      <point x="101" y="730" type="curve"/>
    </contour>
  </outline>
</glyph>
<glyph name="quotedblright" format="1">
  <advance width="280"/>
  <unicode hex="201D"/>
  <outline>
    <contour>
      <point x="220" y="661" type="line" smooth="yes"/>
      <point x="220" y="625"/>
      <point x="204" y="581"/>
      <point x="179" y="553" type="curve"/>
      <point x="151" y="553" type="line"/>
      <point x="175" y="587"/>
      <point x="175" y="620"/>
      <point x="175" y="659" type="curve" smooth="yes"/>
      <point x="175" y="730" type="line"/>
      <point x="220" y="730" type="line"/>
    </contour>
    <contour>
      <point x="105" y="661" type="line" smooth="yes"/>
      <point x="105" y="625"/>
      <point x="89" y="581"/>
      <point x="64" y="553" type="curve"/>
      <point x="36" y="553" type="line"/>
      <point x="60" y="587"/>
      <point x="60" y="620"/>
      <point x="60" y="659" type="curve" smooth="yes"/>
      <point x="60" y="730" type="line"/>
      <point x="105" y="730" type="line"/>
    </contour>
  </outline>
</glyph>
<glyph name="quotedblbase" format="1">
  <advance width="280"/>
  <unicode hex="201E"/>
  <outline>
    <contour>
      <point x="220" y="15" type="line" smooth="yes"/>
      <point x="220" y="-21"/>
      <point x="204" y="-65"/>
      <point x="179" y="-93" type="curve"/>
      <point x="151" y="-93" type="line"/>
      <point x="175" y="-59"/>
      <point x="175" y="-26"/>
      <point x="175" y="13" type="curve" smooth="yes"/>
      <point x="175" y="84" type="line"/>
      <point x="220" y="84" type="line"/>
    </contour>
    <contour>
      <point x="105" y="15" type="line" smooth="yes"/>
      <point x="105" y="-21"/>
      <point x="89" y="-65"/>
      <point x="64" y="-93" type="curve"/>
      <point x="36" y="-93" type="line"/>
      <point x="60" y="-59"/>
      <point x="60" y="-26"/>
      <point x="60" y="13" type="curve" smooth="yes"/>
      <point x="60" y="84" type="line"/>
      <point x="105" y="84" type="line"/>
    </contour>
  </outline>
</glyph>
<glyph name="dagger" format="1">
  <advance width="503"/>
  <unicode hex="2020"/>
  <outline>
    <contour>
      <point x="483" y="402" type="line"/>
      <point x="272" y="402" type="line"/>
      <point x="272" y="-179" type="line"/>
      <point x="231" y="-179" type="line"/>
      <point x="231" y="402" type="line"/>
      <point x="20" y="402" type="line"/>
      <point x="20" y="438" type="line"/>
      <point x="231" y="438" type="line"/>
      <point x="231" y="730" type="line"/>
      <point x="272" y="730" type="line"/>
      <point x="272" y="438" type="line"/>
      <point x="483" y="438" type="line"/>
    </contour>
  </outline>
</glyph>
<glyph name="daggerdbl" format="1">
  <advance width="503"/>
  <unicode hex="2021"/>
  <outline>
    <contour>
      <point x="483" y="126" type="line"/>
      <point x="272" y="126" type="line"/>
      <point x="272" y="-179" type="line"/>
      <point x="231" y="-179" type="line"/>
      <point x="231" y="126" type="line"/>
      <point x="20" y="126" type="line"/>
      <point x="20" y="162" type="line"/>
      <point x="231" y="162" type="line"/>
      <point x="231" y="402" type="line"/>
      <point x="20" y="402" type="line"/>
      <point x="20" y="438" type="line"/>
      <point x="231" y="438" type="line"/>
      <point x="231" y="730" type="line"/>
      <point x="272" y="730" type="line"/>
      <point x="272" y="438" type="line"/>
      <point x="483" y="438" type="line"/>
      <point x="483" y="402" type="line"/>
      <point x="272" y="402" type="line"/>
      <point x="272" y="162" type="line"/>
      <point x="483" y="162" type="line"/>
    </contour>
  </outline>
</glyph>
<glyph name="ellipsis" format="1">
  <advance width="505"/>
  <unicode hex="2026"/>
  <outline>
    <contour>
      <point x="445" y="0" type="line"/>
      <point x="400" y="0" type="line"/>
      <point x="400" y="84" type="line"/>
      <point x="445" y="84" type="line"/>
    </contour>
    <contour>
      <point x="275" y="0" type="line"/>
      <point x="230" y="0" type="line"/>
      <point x="230" y="84" type="line"/>
      <point x="275" y="84" type="line"/>
    </contour>
    <contour>
      <point x="105" y="0" type="line"/>
      <point x="60" y="0" type="line"/>
      <point x="60" y="84" type="line"/>
      <point x="105" y="84" type="line"/>
    </contour>
  </outline>
</glyph>
<glyph name="guilsinglright" format="1">
  <advance width="202"/>
  <unicode hex="203A"/>
  <outline>
    <contour>
      <point x="182" y="218" type="line"/>
      <point x="80" y="115" type="line"/>
      <point x="29" y="115" type="line"/>
      <point x="127" y="218" type="line"/>
      <point x="29" y="321" type="line"/>
      <point x="80" y="321" type="line"/>
    </contour>
  </outline>
</glyph>
<glyph name="fraction" format="1">
  <advance width="382"/>
  <unicode hex="2044"/>
  <outline>
    <contour>
      <point x="426" y="730" type="line"/>
      <point x="3" y="0" type="line"/>
      <point x="-44" y="0" type="line"/>
      <point x="379" y="730" type="line"/>
    </contour>
  </outline>
</glyph>
<glyph name="Euro" format="1">
  <advance width="607"/>
  <unicode hex="20AC"/>
  <outline>
    <contour>
      <point x="149" y="299" type="line"/>
      <point x="165" y="159"/>
      <point x="230" y="30"/>
      <point x="357" y="30" type="curve" smooth="yes"/>
      <point x="436" y="30"/>
      <point x="489" y="68"/>
      <point x="524" y="132" type="curve"/>
      <point x="563" y="109" type="line"/>
      <point x="520" y="33"/>
      <point x="453" y="-12"/>
      <point x="355" y="-12" type="curve" smooth="yes"/>
      <point x="200" y="-12"/>
      <point x="117" y="134"/>
      <point x="102" y="299" type="curve"/>
      <point x="21" y="299" type="line"/>
      <point x="21" y="335" type="line"/>
      <point x="99" y="335" type="line"/>
      <point x="98" y="353"/>
      <point x="98" y="367"/>
      <point x="99" y="384" type="curve"/>
      <point x="21" y="384" type="line"/>
      <point x="21" y="420" type="line"/>
      <point x="101" y="420" type="line"/>
      <point x="116" y="600"/>
      <point x="197" y="742"/>
      <point x="360" y="742" type="curve" smooth="yes"/>
      <point x="452" y="742"/>
      <point x="517" y="697"/>
      <point x="560" y="624" type="curve"/>
      <point x="520" y="601" type="line"/>
      <point x="485" y="661"/>
      <point x="434" y="700"/>
      <point x="359" y="700" type="curve" smooth="yes"/>
      <point x="227" y="700"/>
      <point x="161" y="576"/>
      <point x="148" y="420" type="curve"/>
      <point x="374" y="420" type="line"/>
      <point x="374" y="384" type="line"/>
      <point x="146" y="384" type="line"/>
      <point x="145" y="367"/>
      <point x="145" y="351"/>
      <point x="146" y="335" type="curve"/>
      <point x="374" y="335" type="line"/>
      <point x="374" y="299" type="line"/>
    </contour>
  </outline>
</glyph>
<glyph name="uni2117" format="1">
  <advance width="844"/>
  <unicode hex="2117"/>
  <outline>
    <contour>
      <point x="799" y="365" type="curve" smooth="yes"/>
      <point x="799" y="157"/>
      <point x="630" y="-12"/>
      <point x="422" y="-12" type="curve" smooth="yes"/>
      <point x="214" y="-12"/>
      <point x="45" y="157"/>
      <point x="45" y="365" type="curve" smooth="yes"/>
      <point x="45" y="573"/>
      <point x="214" y="742"/>
      <point x="422" y="742" type="curve" smooth="yes"/>
      <point x="630" y="742"/>
      <point x="799" y="573"/>
    </contour>
    <contour>
      <point x="765" y="364" type="curve" smooth="yes"/>
      <point x="765" y="553"/>
      <point x="613" y="709"/>
      <point x="422" y="709" type="curve" smooth="yes"/>
      <point x="231" y="709"/>
      <point x="79" y="553"/>
      <point x="79" y="364" type="curve" smooth="yes"/>
      <point x="79" y="175"/>
      <point x="231" y="21"/>
      <point x="422" y="21" type="curve" smooth="yes"/>
      <point x="613" y="21"/>
      <point x="765" y="175"/>
    </contour>
    <contour>
      <point x="577" y="459" type="curve" smooth="yes"/>
      <point x="577" y="383"/>
      <point x="518" y="330"/>
      <point x="432" y="330" type="curve" smooth="yes"/>
      <point x="362" y="330" type="line"/>
      <point x="362" y="146" type="line"/>
      <point x="322" y="146" type="line"/>
      <point x="322" y="584" type="line"/>
      <point x="432" y="584" type="line" smooth="yes"/>
      <point x="520" y="584"/>
      <point x="577" y="535"/>
    </contour>
    <contour>
      <point x="536" y="458" type="curve" smooth="yes"/>
      <point x="536" y="513"/>
      <point x="497" y="547"/>
      <point x="433" y="547" type="curve" smooth="yes"/>
      <point x="362" y="547" type="line"/>
      <point x="362" y="367" type="line"/>
      <point x="426" y="367" type="line" smooth="yes"/>
      <point x="506" y="367"/>
      <point x="536" y="409"/>
    </contour>
  </outline>
</glyph>
<glyph name="trademark" format="1">
  <advance width="789"/>
  <unicode hex="2122"/>
  <outline>
    <contour>
      <point x="735" y="292" type="line"/>
      <point x="700" y="292" type="line"/>
      <point x="700" y="679" type="line"/>
      <point x="552" y="449" type="line"/>
      <point x="534" y="449" type="line"/>
      <point x="386" y="679" type="line"/>
      <point x="386" y="292" type="line"/>
      <point x="351" y="292" type="line"/>
      <point x="351" y="730" type="line"/>
      <point x="392" y="730" type="line"/>
      <point x="543" y="494" type="line"/>
      <point x="693" y="730" type="line"/>
      <point x="735" y="730" type="line"/>
    </contour>
    <contour>
      <point x="273" y="698" type="line"/>
      <point x="166" y="698" type="line"/>
      <point x="166" y="292" type="line"/>
      <point x="131" y="292" type="line"/>
      <point x="131" y="698" type="line"/>
      <point x="23" y="698" type="line"/>
      <point x="23" y="730" type="line"/>
      <point x="273" y="730" type="line"/>
    </contour>
  </outline>
</glyph>
<glyph name="radical" format="1">
  <advance width="510"/>
  <unicode hex="221A"/>
  <outline>
    <contour>
      <point x="485" y="730" type="line"/>
      <point x="201" y="-29" type="line"/>
      <point x="19" y="316" type="line"/>
      <point x="66" y="316" type="line"/>
      <point x="187" y="90" type="line" smooth="yes"/>
      <point x="193" y="79"/>
      <point x="198" y="64"/>
      <point x="198" y="64" type="curve"/>
      <point x="198" y="64"/>
      <point x="203" y="80"/>
      <point x="206" y="89" type="curve" smooth="yes"/>
      <point x="440" y="730" type="line"/>
    </contour>
  </outline>
</glyph>
<glyph name="apple" format="1">
  <advance width="730"/>
  <unicode hex="F8FF"/>
  <outline>
    <contour>
      <point x="407" y="688" type="line"/>
      <point x="323" y="688" type="line"/>
      <point x="323" y="730" type="line"/>
      <point x="407" y="730" type="line"/>
    </contour>
    <contour>
      <point x="730" y="323" type="line"/>
      <point x="688" y="323" type="line"/>
      <point x="688" y="407" type="line"/>
      <point x="730" y="407" type="line"/>
    </contour>
    <contour>
      <point x="407" y="323" type="line"/>
      <point x="323" y="323" type="line"/>
      <point x="323" y="407" type="line"/>
      <point x="407" y="407" type="line"/>
    </contour>
    <contour>
      <point x="42" y="323" type="line"/>
      <point x="0" y="323" type="line"/>
      <point x="0" y="407" type="line"/>
      <point x="42" y="407" type="line"/>
    </contour>
    <contour>
      <point x="407" y="0" type="line"/>
      <point x="323" y="0" type="line"/>
      <point x="323" y="42" type="line"/>
      <point x="407" y="42" type="line"/>
    </contour>
  </outline>
</glyph>
<glyph name="f_f_l" format="1">
  <advance width="567"/>
  <unicode hex="FB04"/>
  <outline>
    <contour>
      <point x="502" y="0" type="line"/>
      <point x="461" y="0" type="line"/>
      <point x="461" y="730" type="line"/>
      <point x="502" y="730" type="line"/>
    </contour>
    <contour>
      <point x="385" y="365" type="line"/>
      <point x="311" y="365" type="line"/>
      <point x="311" y="0" type="line"/>
      <point x="270" y="0" type="line"/>
      <point x="270" y="365" type="line"/>
      <point x="118" y="365" type="line"/>
      <point x="118" y="0" type="line"/>
      <point x="77" y="0" type="line"/>
      <point x="77" y="365" type="line"/>
      <point x="7" y="365" type="line"/>
      <point x="7" y="401" type="line"/>
      <point x="77" y="401" type="line"/>
      <point x="77" y="642" type="line" smooth="yes"/>
      <point x="77" y="704"/>
      <point x="112" y="730"/>
      <point x="158" y="730" type="curve" smooth="yes"/>
      <point x="192" y="730" type="line"/>
      <point x="192" y="692" type="line"/>
      <point x="161" y="692" type="line" smooth="yes"/>
      <point x="135" y="692"/>
      <point x="118" y="679"/>
      <point x="118" y="635" type="curve" smooth="yes"/>
      <point x="118" y="401" type="line"/>
      <point x="270" y="401" type="line"/>
      <point x="270" y="642" type="line" smooth="yes"/>
      <point x="270" y="704"/>
      <point x="305" y="730"/>
      <point x="351" y="730" type="curve" smooth="yes"/>
      <point x="385" y="730" type="line"/>
      <point x="385" y="692" type="line"/>
      <point x="354" y="692" type="line" smooth="yes"/>
      <point x="328" y="692"/>
      <point x="311" y="679"/>
      <point x="311" y="635" type="curve" smooth="yes"/>
      <point x="311" y="401" type="line"/>
      <point x="385" y="401" type="line"/>
    </contour>
  </outline>
</glyph>
<glyph name="onesuperior" format="1">
  <advance width="306"/>
  <outline>
    <contour>
      <point x="142" y="342" type="line"/>
      <point x="142" y="659" type="line"/>
      <point x="130" y="641"/>
      <point x="104" y="629"/>
      <point x="78" y="626" type="curve"/>
      <point x="78" y="668" type="line"/>
      <point x="111" y="672"/>
      <point x="136" y="697"/>
      <point x="148" y="730" type="curve"/>
      <point x="186" y="730" type="line"/>
      <point x="186" y="342" type="line"/>
    </contour>
  </outline>
</glyph>
<glyph name="threesuperior" format="1">
  <advance width="403"/>
  <outline>
    <contour>
      <point x="201" y="343" type="curve" smooth="yes"/>
      <point x="144" y="343"/>
      <point x="96" y="371"/>
      <point x="64" y="414" type="curve"/>
      <point x="96" y="440" type="line"/>
      <point x="127" y="403"/>
      <point x="159" y="384"/>
      <point x="202" y="384" type="curve" smooth="yes"/>
      <point x="250" y="384"/>
      <point x="286" y="410"/>
      <point x="286" y="460" type="curve" smooth="yes"/>
      <point x="286" y="507"/>
      <point x="254" y="535"/>
      <point x="191" y="535" type="curve" smooth="yes"/>
      <point x="153" y="535" type="line"/>
      <point x="153" y="575" type="line"/>
      <point x="190" y="575" type="line" smooth="yes"/>
      <point x="240" y="575"/>
      <point x="271" y="598"/>
      <point x="271" y="639" type="curve" smooth="yes"/>
      <point x="271" y="675"/>
      <point x="241" y="699"/>
      <point x="203" y="699" type="curve" smooth="yes"/>
      <point x="166" y="699"/>
      <point x="138" y="682"/>
      <point x="117" y="652" type="curve"/>
      <point x="82" y="673" type="line"/>
      <point x="116" y="720"/>
      <point x="155" y="740"/>
      <point x="204" y="740" type="curve" smooth="yes"/>
      <point x="264" y="740"/>
      <point x="315" y="701"/>
      <point x="315" y="642" type="curve" smooth="yes"/>
      <point x="315" y="603"/>
      <point x="298" y="575"/>
      <point x="270" y="557" type="curve"/>
      <point x="306" y="540"/>
      <point x="329" y="506"/>
      <point x="329" y="463" type="curve" smooth="yes"/>
      <point x="329" y="390"/>
      <point x="280" y="343"/>
    </contour>
  </outline>
</glyph>
